<svg width="263" height="179" viewBox="0 0 263 179" fill="none" xmlns="http://www.w3.org/2000/svg">
    <g clip-path="url(#huiivh0lba)">
        <path d="M211.94 65.715a22.292 22.292 0 0 0-.127-1.055l-.851.493.978.562zM211.881 72.14c.043-.375.085-.75.119-1.124l-1.029.596.91.527zM207.422 53.274a24.416 24.416 0 0 0-1.166-1.489l-.74.426 1.872 1.08.034-.017zM205.524 58.678l1.872 1.08 1.873-1.08-1.873-1.08-1.872 1.08zM208.664 55.206l-.417.238.8.468c-.128-.238-.247-.476-.383-.706zM207.396 64.064l-1.872 1.08 1.872 1.081 1.873-1.08-1.873-1.081zM210.119 62.992l1.268-.732c-.06-.272-.128-.544-.196-.817l-1.072-.62-1.872 1.08 1.872 1.08v.01zM205.524 71.612l1.872 1.08 1.873-1.08-1.873-1.08-1.872 1.08zM208.247 68.379l1.872 1.08 1.872-1.08-1.872-1.081-1.872 1.08zM205.524 78.079l1.872 1.08 1.873-1.08-1.873-1.081-1.872 1.08zM208.247 74.846l1.872 1.08 1.242-.715c.052-.212.103-.425.145-.638l-1.387-.8-1.872 1.081v-.008zM205.524 84.546l1.396.808c.357-.51.697-1.038 1.021-1.574l-.553-.315-1.872 1.081h.008zM209.634 80.513l-1.387.8.8.46c.204-.418.4-.835.587-1.26zM201.95 53.291l1.872-1.08-1.872-1.081-1.872 1.08 1.872 1.081zM203.151 48.782l-.349.204 1.77 1.021a22.08 22.08 0 0 0-1.421-1.225zM200.078 58.678l1.872 1.08 1.872-1.08-1.872-1.08-1.872 1.08zM204.674 56.525l1.872-1.08-1.872-1.081-1.872 1.08 1.872 1.081zM200.078 65.145l1.872 1.08 1.872-1.08-1.872-1.081-1.872 1.08zM202.802 61.911l1.872 1.08 1.872-1.08-1.872-1.08-1.872 1.08zM201.95 70.531l-1.872 1.08 1.872 1.082 1.872-1.081-1.872-1.08zM204.674 67.298l-1.872 1.08 1.872 1.081 1.872-1.08-1.872-1.081zM200.078 78.079l1.872 1.08 1.872-1.08-1.872-1.081-1.872 1.08zM202.802 74.845l1.872 1.081 1.872-1.08-1.872-1.081-1.872 1.08zM201.95 83.465l-1.872 1.081 1.872 1.08 1.872-1.08-1.872-1.08zM204.674 80.232l-1.872 1.08 1.872 1.081 1.872-1.08-1.872-1.081zM200.078 91.013l.817.477a43.686 43.686 0 0 0 1.549-1.268l-.494-.281-1.872 1.08v-.008zM202.802 87.78l1.395.808a25.58 25.58 0 0 0 1.302-1.413l-.825-.476-1.872 1.08zM198.173 45.863a21.772 21.772 0 0 0-2.306-.825l-1.234.714 1.872 1.081 1.668-.962v-.008zM194.633 52.21l1.872 1.081 1.872-1.08-1.872-1.081-1.872 1.08zM199.228 50.058l1.872-1.08-1.872-1.081-1.873 1.08 1.873 1.08zM194.633 58.678l1.872 1.08 1.872-1.08-1.872-1.08-1.872 1.08zM197.355 55.444l1.873 1.081 1.872-1.08-1.872-1.081-1.873 1.08zM194.633 65.145l1.872 1.08 1.872-1.08-1.872-1.081-1.872 1.08zM197.355 61.911l1.873 1.08 1.872-1.08-1.872-1.08-1.873 1.08zM194.633 71.612l1.872 1.08 1.872-1.08-1.872-1.08-1.872 1.08zM197.355 68.379l1.873 1.08 1.872-1.08-1.872-1.081-1.873 1.08zM196.505 76.998l-1.872 1.08 1.872 1.081 1.872-1.08-1.872-1.081zM199.228 73.765l-1.873 1.08 1.873 1.081 1.872-1.08-1.872-1.081zM194.633 84.546l1.872 1.08 1.872-1.08-1.872-1.08-1.872 1.08zM197.355 81.313l1.873 1.08 1.872-1.08-1.872-1.081-1.873 1.08zM196.505 89.933l-1.872 1.08 1.872 1.081 1.872-1.08-1.872-1.081zM199.228 86.699l-1.873 1.08 1.873 1.081 1.872-1.08-1.872-1.081zM189.187 45.744l1.872 1.08 1.872-1.08-1.872-1.08-1.872 1.08zM189.187 52.21l1.872 1.081 1.872-1.08-1.872-1.081-1.872 1.08zM191.909 48.977l1.872 1.08 1.872-1.08-1.872-1.08-1.872 1.08zM189.187 58.678l1.872 1.08 1.872-1.08-1.872-1.08-1.872 1.08zM191.909 55.444l1.872 1.081 1.872-1.08-1.872-1.081-1.872 1.08zM189.187 65.145l1.872 1.08 1.872-1.08-1.872-1.081-1.872 1.08zM191.909 61.911l1.872 1.08 1.872-1.08-1.872-1.08-1.872 1.08zM190.437 70.889a5.615 5.615 0 0 1-.391 1.217l1.013.587 1.872-1.081-1.872-1.08-.622.357zM191.909 68.379l1.872 1.08 1.872-1.08-1.872-1.081-1.872 1.08zM189.187 78.079l1.872 1.08 1.872-1.08-1.872-1.081-1.872 1.08zM191.909 74.845l1.872 1.081 1.872-1.08-1.872-1.081-1.872 1.08zM191.059 85.627l1.872-1.081-1.872-1.08-1.872 1.08 1.872 1.08zM193.781 80.232l-1.872 1.08 1.872 1.081 1.872-1.08-1.872-1.081zM191.059 92.094l1.872-1.08-1.872-1.081-1.872 1.08 1.872 1.081zM191.909 87.78l1.872 1.08 1.872-1.08-1.872-1.081-1.872 1.08zM189.187 97.48l.859.494a88.277 88.277 0 0 0 2.025-.996l-1.012-.587-1.872 1.08v.01zM195.653 94.247l-1.872-1.081-1.872 1.08 1.872 1.081 1.872-1.08zM183.74 52.21l1.872 1.081 1.872-1.08-1.872-1.081-1.872 1.08zM186.464 48.977l1.872 1.08 1.872-1.08-1.872-1.08-1.872 1.08zM183.74 58.678l1.872 1.08 1.872-1.08-1.872-1.08-1.872 1.08zM186.464 55.444l1.872 1.081 1.872-1.08-1.872-1.081-1.872 1.08zM187.408 65.103s.042.034.059.05h.009l-.077-.05h.009zM186.464 61.911l1.872 1.08 1.872-1.08-1.872-1.08-1.872 1.08zM187.485 78.079l-1.872-1.081-.596.34c-.399.273-.799.537-1.191.792l1.787 1.03 1.872-1.081zM190.208 74.845l-1.387-.8c-.4.485-.859.945-1.344 1.387l.859.502 1.872-1.08v-.009zM185.612 85.627l1.872-1.081-1.872-1.08-1.872 1.08 1.872 1.08zM188.336 82.393l1.872-1.08-1.872-1.081-1.872 1.08 1.872 1.081zM183.74 91.013l1.872 1.081 1.872-1.08-1.872-1.081-1.872 1.08zM188.336 88.86l1.872-1.08-1.872-1.081-1.872 1.08 1.872 1.081zM183.74 97.48l1.872 1.08 1.872-1.08-1.872-1.08-1.872 1.08zM186.464 94.247l1.872 1.08 1.872-1.08-1.872-1.081-1.872 1.08zM181.682 52.415l.349-.204-.213-.128c-.043.11-.094.221-.136.323v.009zM184.047 48.569a13.56 13.56 0 0 0-1.14 1.472l1.847-1.064-.707-.408zM182.039 58.678l-.758-.434c.068.246.145.493.239.731l.519-.297zM182.89 56.525l1.872-1.08-1.872-1.081-1.872 1.08 1.872 1.081zM182.89 60.83l-.281.162c.358.494.783.97 1.277 1.43l.885-.51-1.872-1.081h-.009zM178.295 84.546l1.872 1.08 1.872-1.08-1.872-1.08-1.872 1.08zM182.89 82.393l1.872-1.08-1.872-1.081-1.872 1.08 1.872 1.081zM178.295 91.013l1.872 1.081 1.872-1.08-1.872-1.081-1.872 1.08zM181.018 87.78l1.872 1.08 1.872-1.08-1.872-1.081-1.872 1.08zM178.295 97.48l1.872 1.08 1.872-1.08-1.872-1.08-1.872 1.08zM181.018 94.247l1.872 1.08 1.872-1.08-1.872-1.081-1.872 1.08zM181.018 100.713l1.182.681c.724-.298 1.455-.595 2.179-.902l-1.489-.86-1.872 1.081zM172.849 84.546l1.872 1.08 1.872-1.08-1.872-1.08-1.872 1.08zM179.315 81.312l-.476-.272c-.638.357-1.259.723-1.898 1.064l.502.289 1.872-1.08zM172.849 91.013l1.872 1.081 1.872-1.08-1.872-1.081-1.872 1.08zM177.443 88.86l1.872-1.08-1.872-1.081-1.872 1.08 1.872 1.081zM172.849 97.48l1.872 1.08 1.872-1.08-1.872-1.08-1.872 1.08zM175.571 94.247l1.872 1.08 1.872-1.08-1.872-1.081-1.872 1.08zM176.278 103.769l-1.557-.902-1.872 1.08 1.174.681c.749-.281 1.506-.57 2.255-.859zM175.571 100.713l1.872 1.081 1.872-1.081-1.872-1.08-1.872 1.08zM167.403 91.013l1.872 1.081 1.872-1.08-1.872-1.081-1.872 1.08zM170.126 87.78l1.872 1.08 1.872-1.08-1.872-1.081-1.872 1.08zM167.403 97.48l1.872 1.08 1.872-1.08-1.872-1.08-1.872 1.08zM170.126 94.247l1.872 1.08 1.872-1.08-1.872-1.081-1.872 1.08zM169.275 102.867l-1.872 1.08 1.872 1.081 1.872-1.081-1.872-1.08zM173.87 100.713l-1.872-1.08-1.872 1.08 1.872 1.081 1.872-1.081zM170.73 110.653c.026-.145.043-.29.06-.434l-1.523-.877-1.872 1.081 1.872 1.081 1.463-.843v-.008zM170.126 107.18l.604.349a7.357 7.357 0 0 0-.136-.621l-.468.272zM161.957 91.013l1.872 1.081 1.872-1.08-1.872-1.081-1.872 1.08zM164.739 87.822l1.804 1.038 1.872-1.08-1.523-.877c-.715.307-1.438.621-2.153.92zM161.957 97.48l1.872 1.08 1.872-1.08-1.872-1.08-1.872 1.08zM164.68 94.247l1.872 1.08 1.872-1.08-1.872-1.081-1.872 1.08zM165.701 103.947l-1.872-1.08-1.872 1.08 1.872 1.081 1.872-1.081zM168.424 100.713l-1.872-1.08-1.872 1.08 1.872 1.081 1.872-1.081zM165.701 110.414l-1.872-1.081-1.872 1.081 1.872 1.081 1.872-1.081zM168.424 107.181l-1.872-1.081-1.872 1.081 1.872 1.08 1.872-1.08zM163.829 115.801l-1.872 1.08 1.872 1.081 1.872-1.081-1.872-1.08zM166.552 112.567l-1.872 1.081 1.872 1.08 1.872-1.08-1.872-1.081zM156.775 90.86l-.264.153 1.872 1.08 1.872-1.08-1.498-.86c-.655.24-1.319.477-1.982.707zM156.511 97.48l1.872 1.08 1.872-1.08-1.872-1.08-1.872 1.08zM159.234 94.247l1.872 1.08 1.872-1.08-1.872-1.081-1.872 1.08zM160.255 103.947l-1.872-1.08-1.872 1.08 1.872 1.081 1.872-1.081zM162.978 100.713l-1.872-1.08-1.872 1.08 1.872 1.081 1.872-1.081zM160.255 110.414l-1.872-1.081-1.872 1.081 1.872 1.081 1.872-1.081zM162.978 107.181l-1.872-1.081-1.872 1.081 1.872 1.08 1.872-1.08zM160.255 116.881l-1.872-1.08-1.872 1.08 1.872 1.081 1.872-1.081zM161.106 112.567l-1.872 1.081 1.872 1.08 1.872-1.08-1.872-1.081zM159.234 120.115l1.004.578 1.813-1.106-.945-.553-1.872 1.081zM151.065 97.48l1.872 1.08 1.873-1.08-1.873-1.08-1.872 1.08zM155.66 95.327l1.872-1.08-1.872-1.081-1.872 1.08 1.872 1.081zM151.065 103.947l1.872 1.081 1.873-1.081-1.873-1.08-1.872 1.08zM153.788 100.713l1.872 1.081 1.872-1.081-1.872-1.08-1.872 1.08zM154.81 110.414l-1.873-1.081-1.872 1.081 1.872 1.081 1.873-1.081zM153.788 107.181l1.872 1.08 1.872-1.08-1.872-1.081-1.872 1.081zM154.81 116.881l-1.873-1.08-1.872 1.08 1.872 1.081 1.873-1.081zM157.532 113.648l-1.872-1.081-1.872 1.081 1.872 1.08 1.872-1.08zM154.81 123.348l-1.873-1.08-1.872 1.08 1.872 1.081 1.873-1.081zM157.532 120.115l-1.872-1.081-1.872 1.081 1.872 1.081 1.872-1.081zM152.257 135.593l-1.192.69 1.711.987a5.899 5.899 0 0 0-.519-1.677zM151.389 142.562l-.324.188.111.068c.068-.085.145-.162.213-.256zM147.491 96.4l-1.872 1.08 1.872 1.08 1.872-1.08-1.872-1.08zM150.214 93.166l-1.872 1.08 1.872 1.081 1.872-1.08-1.872-1.081zM149.363 103.947l-1.872-1.08-1.872 1.08 1.872 1.081 1.872-1.081zM148.342 100.713l1.872 1.081 1.872-1.081-1.872-1.08-1.872 1.08zM149.363 110.414l-1.872-1.081-1.872 1.081 1.872 1.081 1.872-1.081zM152.086 107.181l-1.872-1.081-1.872 1.081 1.872 1.08 1.872-1.08zM149.363 116.881l-1.872-1.08-1.872 1.08 1.872 1.081 1.872-1.081zM152.086 113.648l-1.872-1.081-1.872 1.081 1.872 1.08 1.872-1.08zM149.363 123.348l-1.872-1.08-1.872 1.08 1.872 1.081 1.872-1.081zM152.086 120.115l-1.872-1.081-1.872 1.081 1.872 1.081 1.872-1.081zM150.214 125.501l-1.872 1.081 1.14.663 1.83-1.106-1.098-.638zM149.363 136.282l-1.872-1.08-1.872 1.08 1.872 1.081 1.872-1.081zM150.869 133.755h-.008a27.029 27.029 0 0 0-1.532-1.276l-.987.57 1.872 1.081.655-.383v.008zM149.363 142.75l-1.872-1.081-1.872 1.081 1.872 1.08 1.872-1.08zM150.214 138.435l-1.872 1.081 1.872 1.08 1.872-1.08-1.872-1.081zM143.917 97.48l-1.71-.987a8.564 8.564 0 0 0-1.217 1.455l1.055.604 1.872-1.08v.008zM146.64 94.247l-.102-.06c-.187.06-.383.12-.57.17a9.318 9.318 0 0 0-1.685.69l.477.28 1.872-1.08h.008zM143.917 103.947l-1.872-1.08-1.872 1.08 1.872 1.081 1.872-1.081zM146.641 100.713l-1.872-1.08-1.873 1.08 1.873 1.081 1.872-1.081zM143.917 110.414l-1.872-1.081-.238.137c.434.485.919.919 1.472 1.31l.638-.366zM144.769 108.261l1.872-1.08-1.872-1.081-1.873 1.081 1.873 1.08zM143.917 116.881l-1.872-1.08-1.872 1.08 1.872 1.081 1.872-1.081zM146.641 113.648l-1.872-1.081-1.873 1.081 1.873 1.08 1.872-1.08zM143.917 123.348l-1.872-1.08-1.872 1.08 1.872 1.081 1.872-1.081zM146.641 120.115l-1.872-1.081-1.873 1.081 1.873 1.081 1.872-1.081zM143.917 129.816l-1.872-1.081-1.872 1.081 1.872 1.08 1.872-1.08zM146.641 126.582l-1.872-1.081-1.873 1.081 1.873 1.08 1.872-1.08zM143.917 136.282l-1.872-1.08-1.872 1.08 1.872 1.081 1.872-1.081zM146.641 133.049l-1.872-1.081-1.873 1.081 1.873 1.081 1.872-1.081zM143.917 142.75l-1.872-1.081-1.872 1.081 1.872 1.08 1.872-1.08zM146.641 139.516l-1.872-1.081-1.873 1.081 1.873 1.08 1.872-1.08zM144.769 144.902l-1.873 1.081.971.562c.723-.332 1.455-.63 2.186-.902l-1.284-.741zM139.961 100.007a9.403 9.403 0 0 0-.417 1.668l1.651-.953-1.234-.715zM140.496 107.58l.689-.399-1.165-.673c.136.366.297.724.476 1.072zM138.472 116.881l-1.872-1.08-1.872 1.08 1.872 1.081 1.872-1.081zM141.194 113.648l-1.021-.579-1.778 1.132.927.528 1.872-1.081zM138.472 123.348l-1.872-1.08-1.872 1.08 1.872 1.081 1.872-1.081zM141.194 120.115l-1.872-1.081-1.872 1.081 1.872 1.081 1.872-1.081zM138.472 129.816l-1.872-1.081-1.872 1.081 1.872 1.08 1.872-1.08zM141.194 126.582l-1.872-1.081-1.872 1.081 1.872 1.08 1.872-1.08zM138.472 136.282l-1.872-1.08-1.872 1.08 1.872 1.081 1.872-1.081zM141.194 133.049l-1.872-1.081-1.872 1.081 1.872 1.081 1.872-1.081zM138.472 142.75l-1.872-1.081-1.872 1.081 1.872 1.08 1.872-1.08zM141.194 139.516l-1.872-1.081-1.872 1.081 1.872 1.08 1.872-1.08zM136.6 148.136l-1.872 1.08 1.872 1.081 1.872-1.081-1.872-1.08zM141.194 145.983l-1.872-1.081-1.872 1.081 1.872 1.081 1.872-1.081zM133.025 123.348l-1.872-1.08-1.872 1.08 1.872 1.081 1.872-1.081zM135.748 120.115l-1.872-1.081-1.872 1.081 1.872 1.081 1.872-1.081zM133.025 129.816l-1.872-1.081-1.872 1.081 1.872 1.08 1.872-1.08zM135.748 126.582l-1.872-1.081-1.872 1.081 1.872 1.08 1.872-1.08zM133.025 136.282l-1.872-1.08-1.872 1.08 1.872 1.081 1.872-1.081zM135.748 133.049l-1.872-1.081-1.872 1.081 1.872 1.081 1.872-1.081zM133.025 142.75l-1.872-1.081-1.872 1.081 1.872 1.08 1.872-1.08zM135.748 139.516l-1.872-1.081-1.872 1.081 1.872 1.08 1.872-1.08zM133.025 149.216l-1.872-1.08-1.872 1.08 1.872 1.081 1.872-1.081zM135.748 145.983l-1.872-1.081-1.872 1.081 1.872 1.081 1.872-1.081zM134.625 151.812l-.757-.434-1.872 1.081.834.485c.596-.375 1.191-.749 1.787-1.132h.008zM124.048 123.476l1.659.953 1.872-1.081-1.795-1.038c-.468.306-.936.604-1.396.911-.119.076-.221.17-.332.255h-.008zM130.302 120.115l-.604-.341-1.761 1.141.493.28 1.872-1.08zM127.579 129.816l-1.872-1.081-1.872 1.081 1.872 1.08 1.872-1.08zM130.303 126.582l-1.872-1.081-1.872 1.081 1.872 1.08 1.872-1.08zM125.707 135.202l-1.872 1.08 1.872 1.081 1.872-1.081-1.872-1.08zM130.303 133.049l-1.872-1.081-1.872 1.081 1.872 1.081 1.872-1.081zM125.708 143.83l1.872-1.081-.4-.229c-.664.34-1.311.689-1.957 1.029l.485.281zM130.302 139.516l-1.872-1.081-.706.409c.68.323 1.37.646 2.059.97l.519-.298zM127.579 149.216l-1.872-1.08-1.872 1.08 1.872 1.081 1.872-1.081zM130.303 145.983l-1.872-1.081-1.872 1.081 1.872 1.081 1.872-1.081zM125.707 154.603l-1.872 1.081 1.872 1.08 1.872-1.08-1.872-1.081zM130.303 152.45l-1.872-1.081-1.872 1.081 1.872 1.08 1.872-1.08zM120.636 128.956a9.803 9.803 0 0 0-.23 1.855l1.719-.996-1.498-.859h.009zM124.856 126.582l-1.872-1.081-1.344.774c-.085.153-.153.315-.23.477l1.574.91 1.872-1.08zM122.984 134.13l1.872-1.081-1.872-1.081-1.872 1.081 1.872 1.081zM122.134 149.216l-1.872-1.08-1.872 1.08 1.872 1.081 1.872-1.081zM124.856 145.983l-1.872-1.081-1.872 1.081 1.872 1.081 1.872-1.081zM122.134 155.684l-1.872-1.081-1.872 1.081 1.872 1.08 1.872-1.08zM122.984 151.369l-1.872 1.081 1.872 1.08 1.872-1.08-1.872-1.081zM121.112 158.917l.63.366c.638-.349 1.276-.706 1.906-1.055l-.664-.383-1.872 1.08v-.008zM116.687 149.217l-.621-.358c-.613.366-1.234.724-1.855 1.09l.596.348 1.872-1.08h.008zM116.687 155.684l-1.872-1.081-1.872 1.081 1.872 1.08 1.872-1.08zM119.41 152.45l-1.872-1.081-1.872 1.081 1.872 1.08 1.872-1.08zM116.611 162.108l-1.796-1.038-1.872 1.081 1.753 1.012 1.915-1.055zM119.41 158.917l-1.872-1.081-1.872 1.081 1.872 1.081 1.872-1.081zM111.241 155.684l-1.872-1.081-1.872 1.081 1.872 1.08 1.872-1.08zM113.965 152.45l-1.872-1.081-1.872 1.081 1.872 1.08 1.872-1.08zM111.241 162.151l-1.872-1.081-1.872 1.081 1.872 1.08 1.872-1.08zM112.093 157.836l-1.872 1.081 1.872 1.081 1.872-1.081-1.872-1.081zM110.433 165.512l1.915-1.055-.255-.153-1.872 1.08.212.128zM105.796 155.684l-.622-.358-.51.307c-.451.263-.834.57-1.166.884l.426.247 1.872-1.08zM103.924 163.231l1.872-1.08-1.872-1.081-1.728.995c.026.068.043.137.068.205l1.66.953v.008zM108.518 158.917l-1.872-1.081-1.872 1.081 1.872 1.081 1.872-1.081zM106.646 164.304l-1.872 1.08.86.502c.442.179.902.307 1.387.366l1.497-.859-1.872-1.081v-.008zM102.222 158.432c-.136.374-.23.757-.281 1.14l1.132-.655-.851-.494v.009z" fill="#EFEFEF"/>
        <path d="m158.987 107.035-33.867 19.546-18.984-10.96-18.984 10.96-33.876-19.563 52.86-30.505 52.851 30.522z" fill="#FDFDFD"/>
        <path d="m142.965 136.894-36.829 21.265L69.3 136.894l17.852-10.313 18.984 10.96 18.985-10.96 17.844 10.313z" fill="#A7A7A7"/>
        <path d="m125.12 126.582-18.984 10.959-18.985-10.959 18.985-10.96 18.984 10.96z" fill="#2D2A26"/>
        <path d="M106.136 138.818a1.31 1.31 0 0 1-.638-.17l-52.86-30.523a1.284 1.284 0 0 1-.638-1.106c0-.46.247-.877.638-1.107l52.86-30.505c.4-.23.885-.23 1.276 0l52.851 30.514c.392.23.639.647.639 1.106 0 .46-.247.877-.639 1.106l-52.851 30.506c-.195.111-.417.17-.638.17v.009zM87.79 125.475l18.346 10.594 50.298-29.033-50.298-29.043-50.307 29.026 31.961 18.456z" fill="#2D2A26"/>
        <path d="M106.137 159.436c-.222 0-.443-.06-.639-.17l-36.836-21.265a1.284 1.284 0 0 1-.639-1.106c0-.46.247-.876.639-1.106l17.852-10.313 18.984-10.96c.392-.23.885-.23 1.277 0l36.828 21.273c.391.23.638.646.638 1.106 0 .459-.247.876-.638 1.106l-36.828 21.265a1.31 1.31 0 0 1-.638.17zm-34.284-22.541 34.284 19.793 34.275-19.785-34.275-19.801-18.347 10.594-15.937 9.207v-.008z" fill="#2D2A26"/>
        <path d="M200.24 47.88v16.499c0 8.62-5.701 17.223-17.078 23.792-22.754 13.138-59.642 13.138-82.387 0-11.385-6.56-17.061-15.172-17.061-23.792v-16.5c0 8.603 5.684 17.215 17.061 23.792 22.745 13.139 59.633 13.139 82.387 0 11.385-6.577 17.061-15.189 17.061-23.792h.017z" fill="#636363"/>
        <path d="M183.162 24.096c11.385 6.578 17.061 15.18 17.061 23.783 0 8.603-5.684 17.215-17.061 23.792-22.754 13.139-59.642 13.139-82.387 0C89.39 65.094 83.714 56.482 83.714 47.88c0-8.602 5.684-17.205 17.061-23.783 22.745-13.138 59.642-13.138 82.387 0z" fill="#0F0"/>
        <path d="M141.969 82.767c-15.147 0-30.293-3.327-41.823-9.99-11.411-6.594-17.7-15.435-17.7-24.898 0-9.462 6.289-18.295 17.7-24.89 23.068-13.325 60.594-13.325 83.663 0 11.411 6.595 17.699 15.437 17.699 24.89 0 9.454-6.288 18.304-17.699 24.899-11.53 6.662-26.685 9.99-41.832 9.99h-.008zm0-67.248c-14.687 0-29.374 3.225-40.556 9.683C90.819 31.32 84.991 39.37 84.991 47.88c0 8.51 5.828 16.568 16.422 22.686 22.354 12.917 58.74 12.917 81.111 0 10.594-6.118 16.423-14.176 16.423-22.686 0-8.509-5.829-16.559-16.423-22.677-11.181-6.458-25.868-9.683-40.555-9.683z" fill="#2D2A26"/>
        <path d="M176.712 45.233h.579c.706 0 1.267.579 1.267 1.285s-.604 1.25-1.284 1.268c-9.905-.077-19.197 2.076-26.158 6.084-6.527 3.77-10.135 8.697-10.169 13.87 0 .706-.578 1.268-1.276 1.268h-.008a1.269 1.269 0 0 1-1.268-1.285c.042-6.118 4.101-11.82 11.445-16.065 7.207-4.153 16.737-6.433 26.88-6.433l-.008.008zM127.69 52.985c-.221 0-.434-.06-.638-.17l-8.705-5.046a1.28 1.28 0 0 1-.468-1.744 1.28 1.28 0 0 1 1.744-.468l8.705 5.046a1.276 1.276 0 0 1-.638 2.383zM148.581 40.927a1.26 1.26 0 0 1-.638-.17l-8.705-5.037a1.277 1.277 0 1 1 1.276-2.212l8.705 5.037a1.278 1.278 0 0 1-.638 2.383z" fill="#2D2A26"/>
        <path d="M141.969 99.267c-15.147 0-30.293-3.327-41.823-9.99-11.411-6.586-17.7-15.427-17.7-24.898v-16.5c0-.706.57-1.276 1.277-1.276.706 0 1.276.57 1.276 1.276v16.5c0 8.518 5.829 16.576 16.423 22.686 22.354 12.917 58.74 12.917 81.11 0 10.603-6.118 16.44-14.177 16.44-22.686v-16.5c0-.706.571-1.276 1.277-1.276s1.276.57 1.276 1.276v16.5c0 9.462-6.297 18.303-17.716 24.898-11.53 6.663-26.685 9.99-41.832 9.99h-.008z" fill="#2D2A26"/>
    </g>
    <defs>
        <clipPath id="huiivh0lba">
            <path fill="#fff" transform="translate(52 13)" d="M0 0h160v153.252H0z"/>
        </clipPath>
    </defs>
</svg>
