<svg width="327" height="180" viewBox="0 0 327 180" fill="none" xmlns="http://www.w3.org/2000/svg">
    <path d="M23.938 15H4v25m19.938-25v25m0-25h19.937M23.937 40H4m19.938 0v25m0-25h19.937M4 40v25m19.938 0H4m19.938 0v25m0-25h19.937M4 65v25m19.938 0H4m19.938 0v25m0-25h19.937M4 90v25m19.938 0H4m19.938 0v25m0-25h19.937M4 115v25m19.938 0H4m19.938 0v25m0-25h19.937M4 140v25h19.938m0 0h19.937m0-150v25m0-25h19.938M43.874 40v25m0-25h19.938M43.874 65v25m0-25h19.938M43.874 90v25m0-25h19.938m-19.938 25v25m0-25h19.938m-19.938 25v25m0-25h19.938m-19.938 25h19.938m0-150v25m0-25H83.75M63.812 40v25m0-25H83.75M63.812 65v25m0-25H83.75M63.812 90v25m0-25H83.75m-19.938 25v25m0-25H83.75m-19.938 25v25m0-25H83.75m-19.938 25H83.75m0-150v25m0-25h19.938M83.75 40v25m0-25h19.938M83.75 65v25m0-25h19.938M83.75 90v25m0-25h19.938M83.75 115v25m0-25h19.938M83.75 140v25m0-25h19.938M83.75 165h19.938m0-150v25m0-25h19.937m-19.937 25v25m0-25h19.937m-19.937 25v25m0-25h19.937m-19.937 25v25m0-25h19.937m-19.937 25v25m0-25h19.937m-19.937 25v25m0-25h19.937m-19.937 25h19.937m0-150v25m0-25h19.938m-19.938 25v25m0-25h19.938m-19.938 25v25m0-25h19.938m-19.938 25v25m0-25h19.938m-19.938 25v25m0-25h19.938m-19.938 25v25m0-25h19.938m-19.938 25h19.938m0-150v25m0-25H163.5m-19.937 25v25m0-25H163.5m-19.937 25v25m0-25H163.5m-19.937 25v25m0-25H163.5m-19.937 25v25m0-25H163.5m-19.937 25v25m0-25H163.5m-19.937 25H163.5m0-150v25m0-25h19.938M163.5 40v25m0-25h19.938M163.5 65v25m0-25h19.938M163.5 90v25m0-25h19.938M163.5 115v25m0-25h19.938M163.5 140v25m0-25h19.938M163.5 165h19.938m0-150v25m0-25h19.937m-19.937 25v25m0-25h19.937m-19.937 25v25m0-25h19.937m-19.937 25v25m0-25h19.937m-19.937 25v25m0-25h19.937m-19.937 25v25m0-25h19.937m-19.937 25h19.937m0-150v25m0-25h19.938m-19.938 25v25m0-25h19.938m-19.938 25v25m0-25h19.938m-19.938 25v25m0-25h19.938m-19.938 25v25m0-25h19.938m-19.938 25v25m0-25h19.938m-19.938 25h19.938m0-150v25m0-25h19.937m-19.937 25v25m0-25h19.937m-19.937 25v25m0-25h19.937m-19.937 25v25m0-25h19.937m-19.937 25v25m0-25h19.937m-19.937 25v25m0-25h19.937m-19.937 25h19.937m0-150v25m0-25h19.938M243.25 40v25m0-25h19.938M243.25 65v25m0-25h19.938M243.25 90v25m0-25h19.938m-19.938 25v25m0-25h19.938m-19.938 25v25m0-25h19.938m-19.938 25h19.938m0-150v25m0-25h19.937m-19.937 25v25m0-25h19.937m-19.937 25v25m0-25h19.937m-19.937 25v25m0-25h19.937m-19.937 25v25m0-25h19.937m-19.937 25v25m0-25h19.937m-19.937 25h19.937m0-150v25m0-25h19.938m-19.938 25v25m0-25h19.938m-19.938 25v25m0-25h19.938m-19.938 25v25m0-25h19.938m-19.938 25v25m0-25h19.938m-19.938 25v25m0-25h19.938m-19.938 25h19.938m0-150v25m0-25H323v25m-19.937 0v25m0-25H323m-19.937 25v25m0-25H323m-19.937 25v25m0-25H323m-19.937 25v25m0-25H323m-19.937 25v25m0-25H323m-19.937 25H323v-25m0-100v25m0 0v25m0 0v25m0 0v25" stroke="url(#nwm99wp9oa)"/>
    <g clip-path="url(#82jr0r28ib)">
        <path d="M84.525 81.605v43.121c0 2.052.681 3.493 1.758 4.112l5.274 3.044c-1.077-.62-1.758-2.068-1.758-4.113v-43.12c0-3.75 2.277-8.11 5.088-9.736l69.499-40.116c1.239-.713 2.378-.782 3.26-.302l-5.204-3.013c-.89-.519-2.052-.465-3.33.264L89.613 71.876c-2.811 1.627-5.088 5.98-5.088 9.728z" fill="#0F0"/>
        <path d="M89.791 100.586v27.183c0 2.053.681 3.493 1.758 4.113.89.519 2.06.472 3.33-.271l69.507-40.117c2.811-1.626 5.088-5.978 5.088-9.727V54.584l-79.683 46.002zm9.37 14.839v-4.151c0-2.153 1.31-4.655 2.928-5.584l10.572-6.103c1.618-.93 2.919.062 2.919 2.207v4.151c0 2.153-1.309 4.655-2.919 5.584l-10.572 6.095c-1.618.937-2.927-.054-2.927-2.207v.008z" fill="#fff"/>
        <path d="M89.791 90.983v9.603l79.683-46.002V44.98L89.791 90.983z" fill="#3A3A3A"/>
        <path d="M89.791 84.648v6.336l79.683-46.003v-6.335c0-2.09-.712-3.554-1.828-4.159-.882-.472-2.021-.41-3.26.302l-69.5 40.132c-2.81 1.627-5.087 5.987-5.087 9.735l-.008-.008z" fill="#fff"/>
        <path d="M99.162 111.274v4.151c0 2.145 1.309 3.144 2.927 2.207l10.571-6.095c1.619-.929 2.92-3.431 2.92-5.584v-4.151c0-2.145-1.309-3.136-2.92-2.207l-10.571 6.103c-1.618.937-2.927 3.431-2.927 5.584v-.008z" fill="#E5FFE5"/>
        <path d="M92.866 133.392c.836 0 1.72-.256 2.602-.775l69.499-40.116c3.183-1.844 5.669-6.56 5.669-10.734V38.645c0-2.455-.89-4.344-2.439-5.18-1.278-.69-2.835-.574-4.391.317l-69.5 40.132c-3.182 1.835-5.668 6.552-5.668 10.741v43.122c0 2.393.851 4.259 2.338 5.119.581.333 1.224.503 1.89.503v-.007zm73.542-98.046c.24 0 .472.047.689.163.759.41 1.216 1.58 1.216 3.136v43.122c0 3.314-2.06 7.31-4.507 8.72l-69.507 40.124c-.496.287-1.425.697-2.169.271-.735-.426-1.177-1.587-1.177-3.105V84.655c0-3.314 2.068-7.31 4.507-8.728l69.507-40.124c.403-.232.922-.457 1.433-.457h.008z" fill="#3A3A3A"/>
        <path d="M89.792 92.144c.193 0 .395-.047.58-.155l79.684-46.003a1.163 1.163 0 0 0-1.162-2.014L89.211 89.976a1.163 1.163 0 0 0 .58 2.169zM89.791 101.749c.194 0 .395-.046.581-.155l79.683-46.002a1.162 1.162 0 1 0-1.162-2.014L89.21 99.582a1.162 1.162 0 0 0 .581 2.168zM100.921 119.143c.573 0 1.169-.171 1.75-.512l10.563-6.094c1.967-1.131 3.501-4.028 3.501-6.591v-4.151c0-1.557-.581-2.78-1.588-3.369-.89-.519-2.013-.465-3.074.147l-10.572 6.103c-1.967 1.138-3.508 4.035-3.508 6.59v4.151c0 1.557.581 2.788 1.596 3.369.402.233.851.349 1.324.349l.008.008zm12.894-18.742a.39.39 0 0 1 .178.039c.217.124.426.588.426 1.355v4.151c0 1.719-1.092 3.864-2.339 4.577l-10.571 6.103c-.317.185-.596.247-.751.155-.217-.124-.434-.589-.434-1.356v-4.151c0-1.719 1.1-3.857 2.347-4.577l10.563-6.102c.217-.124.419-.194.573-.194h.008z" fill="#3A3A3A"/>
        <path d="M91.55 133.044c.402 0 .79-.21 1.006-.581a1.165 1.165 0 0 0-.426-1.588l-5.274-3.043c-.743-.426-1.177-1.588-1.177-3.106V81.605c0-3.315 2.068-7.311 4.507-8.72l69.507-40.133c.604-.34 1.472-.666 2.169-.263l5.281 3.044a1.163 1.163 0 0 0 1.162-2.014l-5.282-3.043c-1.285-.744-2.873-.651-4.484.263L89.033 70.87c-3.183 1.835-5.67 6.552-5.67 10.734v43.121c0 2.401.852 4.267 2.347 5.119l5.266 3.044c.186.108.38.155.581.155h-.008z" fill="#3A3A3A"/>
    </g>
    <g clip-path="url(#y5jwck7b9c)">
        <path d="M163.944 63.66v42.231l12.122 6.999V70.659l-12.122-6.999z" fill="#3A3A3A"/>
        <path d="m163.944 63.66 12.122 6.998 8.912-5.142-12.122-6.998-8.912 5.142z" fill="#3A3A3A"/>
        <path d="M176.066 70.658v42.231c2.505 1.617 6.212 2.907 11.083 8.2 4.739 5.149 8.207 6.508 15.779 10.838-.17-1.139.025-2.379.491-3.675l.963-2.537-.391-.226c-1.516-.881-1.926-2.6-1.397-3.978l3.015-7.93 6.029-15.88c.365-.93 1.139-1.717 2.297-1.975 2.424-.542 4.916-.372 7.301 1l-17.138-9.893c2.002-10.63 4.834-25.226-1.158-35.39-1.554-2.688-3.952-3.87-5.381-3.134-.025.006-.044.025-.069.037-.592.34-1.001 1.02-1.102 2.065-.604 6.268-2.102 12.669-5.683 17.08h-.006c-1.825 2.26-4.211 3.985-7.282 4.904-3.424 1.032-6.992-1.586-7.345-1.737h-.006z" fill="#fff"/>
        <path d="m184.978 65.516-8.912 5.142c.353.145 3.921 2.77 7.345 1.737 3.078-.919 5.457-2.643 7.282-4.903-2.845.025-5.249-1.756-5.721-1.982l.006.006zM221.23 96.733c-2.379-1.372-4.878-1.542-7.301-1-1.158.251-1.932 1.038-2.297 1.976l-.057.15c-.44 1.348-.006 2.978 1.448 3.821l5.633 3.254c4.059 2.341 11.159 3.581 15.74 2.574 4.129-.906 6.596-2.738 7.377-4.739l.012-.038c.787-2.071-.214-4.33-3.008-5.941L213.52 82.207l-.529-.51c2.021-10.693 4.828-25.244-1.158-35.39-1.586-2.743-4.04-3.914-5.456-3.096a.072.072 0 0 1-.032.013l-.012.012s-.013.007-.026.007a.172.172 0 0 1-.044.031s-.006 0-.012.007c-.007.006-.025.012-.038.025-.025.012-.038.025-.063.031l-.006.006h-.007s0 .007-.006.007c0 0-.006.006-.012.006-.007.006-.013.006-.013.006h-.006l-.025.026a.116.116 0 0 1-.032.012c-.743.434-2.895 1.674-8.484 4.903 1.429-.73 3.82.447 5.381 3.134 5.992 10.165 3.16 24.766 1.158 35.39l17.138 9.894-.006.012z" fill="#0F0"/>
        <path d="M202.594 121.512c-.528 1.378-.125 3.097 1.398 3.978l5.633 3.254c4.053 2.341 11.152 3.581 15.728 2.574 4.141-.913 6.596-2.738 7.376-4.739l3.027-7.975c-.761 2.021-3.228 3.871-7.389 4.777-4.575 1.007-11.668-.232-15.728-2.574l-5.633-3.254c-1.51-.868-1.919-2.586-1.397-3.971l-3.015 7.93z" fill="#fff"/>
        <path d="M203.419 128.245c-.472 1.297-.661 2.537-.491 3.676.264 1.743 1.366 3.247 3.606 4.368 17.403 8.71 22.878-1.102 23.992-3.921l2.203-5.797c-.78 2.002-3.235 3.833-7.376 4.739-4.576 1.007-11.675-.232-15.728-2.574l-5.243-3.027-.963 2.536zM205.609 113.581c-.523 1.378-.114 3.096 1.397 3.971l5.633 3.254c4.059 2.341 11.152 3.581 15.728 2.574 4.16-.906 6.627-2.756 7.389-4.777l3.015-7.917c-.781 2.014-3.248 3.845-7.389 4.764-4.57 1.001-11.669-.239-15.728-2.58l-5.633-3.254c-1.511-.869-1.92-2.587-1.398-3.971l-3.014 7.93v.006z" fill="#fff"/>
        <path d="M208.624 105.645c-.523 1.378-.113 3.096 1.397 3.971l5.633 3.254c4.059 2.341 11.159 3.581 15.728 2.58 4.148-.919 6.615-2.75 7.389-4.764l3.008-7.918c-.78 2.002-3.247 3.833-7.376 4.74-4.575 1.007-11.675-.233-15.741-2.574l-5.633-3.254c-1.453-.85-1.888-2.474-1.447-3.82l-2.958 7.785z" fill="#fff"/>
        <path d="M176.066 113.832a.943.943 0 0 1-.944-.944V70.657a.946.946 0 0 1 1.309-.875c.063.025.207.107.415.233.919.554 3.72 2.247 6.294 1.472 2.719-.811 5.016-2.353 6.822-4.594a.947.947 0 0 1 1.328-.138.947.947 0 0 1 .139 1.328c-2.052 2.536-4.658 4.292-7.748 5.21-2.574.775-5.117-.207-6.671-1.012v40.607a.943.943 0 0 1-.944.944z" fill="#3A3A3A"/>
        <path d="M190.699 68.435a.948.948 0 0 1-.724-1.542c2.964-3.65 4.752-9.076 5.475-16.578.158-1.655.945-2.436 1.574-2.794a.947.947 0 0 1 .938 1.643c-.441.251-.586.862-.63 1.334-.755 7.88-2.681 13.632-5.884 17.584a.948.948 0 0 1-.743.346l-.006.007z" fill="#3A3A3A"/>
        <path d="M225.333 100.043a.933.933 0 0 1-.472-.126l-21.241-12.26a.943.943 0 0 1-.453-.995l.056-.302c1.964-10.41 4.651-24.671-1.101-34.433-1.41-2.436-3.336-3.185-4.135-2.776a.943.943 0 0 1-1.272-.409.942.942 0 0 1 .41-1.27c2.02-1.04 4.871.471 6.627 3.505 6.042 10.252 3.405 24.709 1.391 35.383l20.662 11.927a.945.945 0 0 1-.472 1.762v-.006z" fill="#3A3A3A"/>
        <path d="M197.496 49.277a.959.959 0 0 1-.793-.422.942.942 0 0 1 .265-1.302.814.814 0 0 1 .157-.088l8.484-4.903a.595.595 0 0 1 .138-.076h.013l.019-.019c.038-.025.075-.05.113-.069a.948.948 0 0 1 1.183.164.95.95 0 0 1-.245 1.472c-.013 0-.019.013-.032.02a.957.957 0 0 0-.1.062c-.032.02-.063.038-.101.057-.025.019-.05.031-.076.05-.012.007-.031.02-.044.025-.39.227-8.49 4.903-8.509 4.916a.998.998 0 0 1-.472.126v-.013zm8.862-6.998a.925.925 0 0 0-.441.113c.007 0 .013-.007.025-.013a.988.988 0 0 1 .416-.1z" fill="#3A3A3A"/>
        <path d="M213.004 82.64c-.057 0-.12 0-.176-.02a.949.949 0 0 1-.756-1.1l.044-.227c1.97-10.441 4.67-24.734-1.082-34.509-1.441-2.498-3.38-3.216-4.173-2.756a.947.947 0 0 1-1.29-.346.946.946 0 0 1 .346-1.29c1.995-1.152 4.96.358 6.747 3.442 6.111 10.378 3.336 25.074 1.309 35.811l-.044.227a.947.947 0 0 1-.925.768zM176.066 71.601a.945.945 0 0 1-.472-1.762l8.912-5.142a.94.94 0 0 1 1.29.346.946.946 0 0 1-.346 1.29l-8.912 5.142a.933.933 0 0 1-.472.126z" fill="#3A3A3A"/>
        <path d="M190.636 68.436c-2.625 0-4.834-1.334-5.784-1.907-.095-.056-.17-.107-.233-.138a.935.935 0 0 1-.585-.869c0-.32.163-.63.44-.8a.916.916 0 0 1 .907-.056c.094.044.245.132.446.252.812.49 2.707 1.636 4.815 1.636h.057v1.888h-.063v-.006z" fill="#3A3A3A"/>
        <path d="M202.928 132.864a.896.896 0 0 1-.466-.126 240.102 240.102 0 0 0-3.795-2.127c-5.136-2.851-8.239-4.576-12.21-8.887-3.651-3.971-6.583-5.595-8.937-6.904-.699-.391-1.36-.756-1.964-1.146l-12.084-6.967a.958.958 0 0 1-.472-.818V63.658a.95.95 0 0 1 .472-.818l8.912-5.142c.29-.17.655-.17.944 0l12.122 6.998a.945.945 0 0 1-.944 1.637l-11.65-6.722-7.968 4.595v41.135s12.846 7.44 13.544 7.83c2.342 1.303 5.551 3.077 9.409 7.275 3.764 4.085 6.596 5.658 11.738 8.516 1.152.642 2.417 1.34 3.814 2.14a.946.946 0 0 1 .353 1.29.945.945 0 0 1-.818.472z" fill="#3A3A3A"/>
        <path d="M176.066 71.601a.933.933 0 0 1-.472-.126l-12.122-6.998a.945.945 0 0 1 .944-1.637l12.122 7a.945.945 0 0 1-.472 1.761zM241.798 103.673a.876.876 0 0 1-.334-.062.936.936 0 0 1-.547-1.215c.642-1.693-.327-3.48-2.593-4.79l-25.257-14.582a.945.945 0 0 1 .944-1.637l25.257 14.583c3.09 1.781 4.399 4.506 3.417 7.093a.945.945 0 0 1-.881.61h-.006z" fill="#3A3A3A"/>
        <path d="M230.778 108.797c-4.28 0-9.29-1.152-12.588-3.053l-5.633-3.253c-1.724-1.001-2.492-3.034-1.875-4.935a.94.94 0 0 1 1.189-.604.94.94 0 0 1 .604 1.19c-.289.887-.081 2.07 1.026 2.712l5.633 3.254c3.934 2.272 10.832 3.399 15.061 2.467 3.531-.78 5.973-2.291 6.697-4.16a.946.946 0 0 1 1.221-.541c.484.189.73.736.541 1.221-.957 2.467-3.896 4.405-8.056 5.318-1.145.252-2.448.371-3.827.371l.007.013z" fill="#3A3A3A"/>
        <path d="M211.638 98.644a.947.947 0 0 1-.881-1.284c.516-1.321 1.599-2.253 2.977-2.555 2.895-.642 5.583-.27 7.974 1.108a.945.945 0 0 1-.944 1.636c-1.97-1.133-4.198-1.441-6.621-.9a2.218 2.218 0 0 0-1.624 1.391.95.95 0 0 1-.881.604z" fill="#3A3A3A"/>
        <path d="M227.782 116.733c-4.28 0-9.302-1.151-12.6-3.052l-5.633-3.254a4.176 4.176 0 0 1-1.807-5.123l3.015-7.936a.946.946 0 0 1 1.215-.548c.484.183.73.73.547 1.215l-3.014 7.936c-.34.888-.177 2.146.982 2.814l5.632 3.253c3.934 2.272 10.832 3.405 15.055 2.48 3.543-.78 5.985-2.31 6.716-4.179a.95.95 0 0 1 1.221-.541c.484.189.73.736.541 1.221-.957 2.473-3.896 4.424-8.069 5.343-1.139.252-2.435.365-3.808.365l.007.006z" fill="#3A3A3A"/>
        <path d="M224.748 124.669c-4.274 0-9.29-1.152-12.581-3.053l-5.633-3.253a4.175 4.175 0 0 1-1.807-5.123.943.943 0 1 1 1.763.673c-.34.887-.177 2.146.981 2.813l5.633 3.254c3.934 2.272 10.832 3.399 15.055 2.467 3.499-.768 6.011-2.328 6.709-4.191a.941.941 0 0 1 1.215-.548.94.94 0 0 1 .547 1.215c-.944 2.498-3.883 4.449-8.075 5.368-1.145.252-2.442.372-3.82.372l.013.006z" fill="#3A3A3A"/>
        <path d="M205.609 114.519a.95.95 0 0 1-.881-1.284l3.015-7.93a.95.95 0 0 1 1.221-.547.95.95 0 0 1 .547 1.221l-3.015 7.93a.947.947 0 0 1-.881.61h-.006z" fill="#3A3A3A"/>
        <path d="M221.733 132.605c-4.28 0-9.289-1.152-12.581-3.052l-5.633-3.254a4.175 4.175 0 0 1-1.806-5.136l3.002-7.898a.94.94 0 0 1 .894-.636.942.942 0 0 1 .881 1.284l-3.015 7.93c-.34.887-.182 2.152.988 2.826l5.633 3.254c3.934 2.272 10.825 3.405 15.055 2.467 3.531-.774 5.973-2.291 6.696-4.16a.947.947 0 0 1 1.221-.542c.485.189.73.737.542 1.221-.957 2.468-3.896 4.406-8.056 5.319-1.146.251-2.449.371-3.827.371l.006.006z" fill="#3A3A3A"/>
        <path d="M219.014 140.77c-3.751 0-8.075-1.214-12.902-3.631-2.41-1.209-3.795-2.914-4.116-5.073-.189-1.246 0-2.637.541-4.135l.97-2.549a.94.94 0 1 1 1.762.667l-.963 2.537c-.434 1.189-.579 2.272-.441 3.203.233 1.536 1.24 2.738 3.097 3.663 6.753 3.38 12.329 4.274 16.584 2.643 3.94-1.504 5.582-4.745 6.111-6.073l11.266-29.631a.949.949 0 0 1 1.221-.547c.485.188.73.73.547 1.214l-11.265 29.644c-.623 1.567-2.556 5.381-7.194 7.156-1.586.604-3.323.906-5.199.906l-.019.006z" fill="#3A3A3A"/>
    </g>
    <g clip-path="url(#94gnfjp8md)">
        <ellipse cx="129" cy="139" rx="7" ry="4" fill="#0F0"/>
        <path d="M157.357 127.834c-1.987 0-3.975-.446-5.521-1.342-1.604-.926-2.486-2.196-2.486-3.578 0-1.381.882-2.651 2.486-3.578 3.097-1.791 7.954-1.787 11.051 0 1.6.922 2.482 2.192 2.482 3.574 0 1.381-.882 2.651-2.486 3.578-1.551.896-3.538 1.341-5.526 1.341v.005zm-4.852-7.335c-1.172.677-1.819 1.537-1.819 2.42 0 .882.647 1.742 1.819 2.419 2.678 1.547 7.036 1.547 9.714 0 1.172-.677 1.818-1.537 1.818-2.419 0-.883-.646-1.743-1.814-2.416-2.678-1.546-7.036-1.546-9.714 0l-.004-.004zM143.182 136.019c-1.987 0-3.974-.445-5.521-1.341-1.604-.927-2.486-2.197-2.486-3.578 0-1.381.882-2.651 2.486-3.578 3.097-1.787 7.95-1.787 11.051 0 1.6.927 2.482 2.192 2.482 3.574 0 1.381-.882 2.651-2.482 3.573-1.55.896-3.538 1.342-5.525 1.342l-.005.008zm-4.852-7.334c-1.172.677-1.818 1.537-1.818 2.419 0 .883.646 1.743 1.818 2.42 2.678 1.546 7.036 1.546 9.714 0 1.172-.677 1.814-1.533 1.814-2.415 0-.882-.647-1.742-1.814-2.415-2.678-1.547-7.036-1.547-9.714 0v-.009zM129.008 144.202c-1.988 0-3.975-.445-5.522-1.341-1.604-.922-2.486-2.192-2.486-3.574 0-1.381.882-2.651 2.486-3.578 3.097-1.791 7.955-1.787 11.052 0 1.599.922 2.482 2.192 2.482 3.574 0 1.381-.883 2.651-2.487 3.578-1.551.896-3.538 1.341-5.53 1.341h.005zm-4.853-7.334c-1.172.677-1.818 1.537-1.818 2.419 0 .883.646 1.743 1.818 2.42 2.678 1.546 7.036 1.546 9.714 0 1.172-.677 1.818-1.537 1.818-2.42 0-.882-.646-1.742-1.813-2.415-2.678-1.546-7.037-1.546-9.715 0l-.004-.004zM115.008 153.202c-1.988 0-3.975-.445-5.522-1.341-1.604-.922-2.486-2.192-2.486-3.574 0-1.381.882-2.651 2.486-3.578 3.097-1.791 7.955-1.787 11.052 0 1.599.922 2.482 2.192 2.482 3.574 0 1.381-.883 2.651-2.487 3.578-1.551.896-3.538 1.341-5.53 1.341h.005zm-4.853-7.334c-1.172.677-1.818 1.537-1.818 2.419 0 .883.646 1.743 1.818 2.42 2.678 1.546 7.036 1.546 9.714 0 1.172-.677 1.818-1.537 1.818-2.42 0-.882-.646-1.742-1.813-2.415-2.678-1.546-7.037-1.546-9.715 0l-.004-.004z" fill="#3A3A3A"/>
    </g>
    <defs>
        <clipPath id="82jr0r28ib">
            <path fill="#fff" transform="matrix(-1 0 0 1 170.636 29.98)" d="M0 0h87.273v103.412H0z"/>
        </clipPath>
        <clipPath id="y5jwck7b9c">
            <path fill="#fff" transform="translate(163 42)" d="M0 0h80v98.768H0z"/>
        </clipPath>
        <clipPath id="94gnfjp8md">
            <path fill="#fff" transform="translate(106 118)" d="M0 0h80v46.762H0z"/>
        </clipPath>
        <radialGradient id="nwm99wp9oa" cx="0" cy="0" r="1" gradientUnits="userSpaceOnUse" gradientTransform="matrix(0 75 -122.887 0 163.5 90)">
            <stop stop-color="#fff" stop-opacity=".3"/>
            <stop offset="1" stop-color="#2D2A26" stop-opacity="0"/>
        </radialGradient>
    </defs>
</svg>
