<svg width="327" height="180" viewBox="0 0 327 180" fill="none" xmlns="http://www.w3.org/2000/svg">
    <path d="M23.938 15H4v25m19.938-25v25m0-25h19.937M23.937 40H4m19.938 0v25m0-25h19.937M4 40v25m19.938 0H4m19.938 0v25m0-25h19.937M4 65v25m19.938 0H4m19.938 0v25m0-25h19.937M4 90v25m19.938 0H4m19.938 0v25m0-25h19.937M4 115v25m19.938 0H4m19.938 0v25m0-25h19.937M4 140v25h19.938m0 0h19.937m0-150v25m0-25h19.938M43.874 40v25m0-25h19.938M43.874 65v25m0-25h19.938M43.874 90v25m0-25h19.938m-19.938 25v25m0-25h19.938m-19.938 25v25m0-25h19.938m-19.938 25h19.938m0-150v25m0-25H83.75M63.812 40v25m0-25H83.75M63.812 65v25m0-25H83.75M63.812 90v25m0-25H83.75m-19.938 25v25m0-25H83.75m-19.938 25v25m0-25H83.75m-19.938 25H83.75m0-150v25m0-25h19.938M83.75 40v25m0-25h19.938M83.75 65v25m0-25h19.938M83.75 90v25m0-25h19.938M83.75 115v25m0-25h19.938M83.75 140v25m0-25h19.938M83.75 165h19.938m0-150v25m0-25h19.937m-19.937 25v25m0-25h19.937m-19.937 25v25m0-25h19.937m-19.937 25v25m0-25h19.937m-19.937 25v25m0-25h19.937m-19.937 25v25m0-25h19.937m-19.937 25h19.937m0-150v25m0-25h19.938m-19.938 25v25m0-25h19.938m-19.938 25v25m0-25h19.938m-19.938 25v25m0-25h19.938m-19.938 25v25m0-25h19.938m-19.938 25v25m0-25h19.938m-19.938 25h19.938m0-150v25m0-25H163.5m-19.937 25v25m0-25H163.5m-19.937 25v25m0-25H163.5m-19.937 25v25m0-25H163.5m-19.937 25v25m0-25H163.5m-19.937 25v25m0-25H163.5m-19.937 25H163.5m0-150v25m0-25h19.938M163.5 40v25m0-25h19.938M163.5 65v25m0-25h19.938M163.5 90v25m0-25h19.938M163.5 115v25m0-25h19.938M163.5 140v25m0-25h19.938M163.5 165h19.938m0-150v25m0-25h19.937m-19.937 25v25m0-25h19.937m-19.937 25v25m0-25h19.937m-19.937 25v25m0-25h19.937m-19.937 25v25m0-25h19.937m-19.937 25v25m0-25h19.937m-19.937 25h19.937m0-150v25m0-25h19.938m-19.938 25v25m0-25h19.938m-19.938 25v25m0-25h19.938m-19.938 25v25m0-25h19.938m-19.938 25v25m0-25h19.938m-19.938 25v25m0-25h19.938m-19.938 25h19.938m0-150v25m0-25h19.937m-19.937 25v25m0-25h19.937m-19.937 25v25m0-25h19.937m-19.937 25v25m0-25h19.937m-19.937 25v25m0-25h19.937m-19.937 25v25m0-25h19.937m-19.937 25h19.937m0-150v25m0-25h19.938M243.25 40v25m0-25h19.938M243.25 65v25m0-25h19.938M243.25 90v25m0-25h19.938m-19.938 25v25m0-25h19.938m-19.938 25v25m0-25h19.938m-19.938 25h19.938m0-150v25m0-25h19.937m-19.937 25v25m0-25h19.937m-19.937 25v25m0-25h19.937m-19.937 25v25m0-25h19.937m-19.937 25v25m0-25h19.937m-19.937 25v25m0-25h19.937m-19.937 25h19.937m0-150v25m0-25h19.938m-19.938 25v25m0-25h19.938m-19.938 25v25m0-25h19.938m-19.938 25v25m0-25h19.938m-19.938 25v25m0-25h19.938m-19.938 25v25m0-25h19.938m-19.938 25h19.938m0-150v25m0-25H323v25m-19.937 0v25m0-25H323m-19.937 25v25m0-25H323m-19.937 25v25m0-25H323m-19.937 25v25m0-25H323m-19.937 25v25m0-25H323m-19.937 25H323v-25m0-100v25m0 0v25m0 0v25m0 0v25" stroke="url(#90xbkr3wea)"/>
    <g clip-path="url(#n048lquqsb)">
        <path d="M84.525 81.604v43.121c0 2.053.681 3.493 1.758 4.113l5.274 3.043c-1.077-.619-1.758-2.068-1.758-4.112V84.648c0-3.749 2.277-8.109 5.088-9.735l69.499-40.117c1.239-.712 2.378-.782 3.26-.302l-5.204-3.012c-.89-.52-2.052-.465-3.33.263L89.613 71.877c-2.811 1.626-5.088 5.979-5.088 9.727z" fill="#0F0"/>
        <path d="M89.791 100.585v27.183c0 2.053.682 3.493 1.758 4.113.891.519 2.06.472 3.33-.271l69.507-40.117c2.812-1.626 5.089-5.978 5.089-9.727V54.583l-79.683 46.002zm9.371 14.839v-4.151c0-2.153 1.309-4.655 2.928-5.584l10.571-6.103c1.619-.93 2.92.062 2.92 2.207v4.151c0 2.153-1.309 4.655-2.92 5.584l-10.571 6.095c-1.619.937-2.928-.054-2.928-2.207v.008z" fill="#fff"/>
        <path d="M89.791 90.983v9.603l79.684-46.002V44.98L89.792 90.983z" fill="#3A3A3A"/>
        <path d="M89.791 84.647v6.335l79.684-46.002v-6.335c0-2.09-.713-3.555-1.828-4.159-.883-.472-2.021-.41-3.261.303L94.887 74.92c-2.81 1.627-5.088 5.987-5.088 9.735l-.008-.008z" fill="#fff"/>
        <path d="M99.162 111.274v4.151c0 2.145 1.309 3.144 2.927 2.207l10.571-6.095c1.619-.929 2.92-3.431 2.92-5.584v-4.151c0-2.145-1.309-3.136-2.92-2.207l-10.571 6.103c-1.618.937-2.927 3.431-2.927 5.584v-.008z" fill="#E5FFE5"/>
        <path d="M92.867 133.392c.836 0 1.719-.256 2.602-.775l69.499-40.116c3.183-1.844 5.669-6.56 5.669-10.734V38.645c0-2.455-.891-4.344-2.44-5.18-1.278-.69-2.834-.574-4.391.317L94.307 73.914c-3.183 1.835-5.669 6.552-5.669 10.741v43.122c0 2.393.852 4.259 2.339 5.119.58.333 1.224.503 1.89.503v-.007zm73.541-98.046c.24 0 .473.047.689.163.759.41 1.216 1.58 1.216 3.136v43.122c0 3.314-2.06 7.31-4.507 8.72l-69.507 40.124c-.495.287-1.425.697-2.168.271-.736-.426-1.177-1.587-1.177-3.105V84.655c0-3.314 2.067-7.31 4.507-8.728l69.507-40.124c.402-.232.921-.457 1.432-.457h.008z" fill="#3A3A3A"/>
        <path d="M89.792 92.144c.194 0 .395-.046.581-.155l79.683-46.002a1.162 1.162 0 1 0-1.162-2.014L89.211 89.977a1.163 1.163 0 0 0 .581 2.168zM89.792 101.748c.194 0 .395-.047.581-.155l79.683-46.002a1.162 1.162 0 1 0-1.162-2.014L89.211 99.579a1.163 1.163 0 0 0 .581 2.169zM100.921 119.141c.573 0 1.17-.17 1.75-.511l10.564-6.095c1.967-1.131 3.5-4.027 3.5-6.591v-4.151c0-1.556-.58-2.78-1.587-3.368-.891-.52-2.014-.465-3.075.147l-10.571 6.102c-1.967 1.139-3.508 4.035-3.508 6.591v4.151c0 1.557.58 2.788 1.595 3.369.403.232.852.348 1.324.348l.008.008zm12.895-18.742a.41.41 0 0 1 .178.039c.217.124.426.589.426 1.355v4.151c0 1.72-1.092 3.865-2.339 4.577l-10.571 6.103c-.318.186-.597.248-.752.155-.216-.124-.433-.589-.433-1.355v-4.151c0-1.72 1.099-3.857 2.346-4.577l10.564-6.103c.217-.124.418-.194.573-.194h.008z" fill="#3A3A3A"/>
        <path d="M91.55 133.043a1.163 1.163 0 0 0 .58-2.168l-5.274-3.044c-.743-.426-1.177-1.588-1.177-3.106v-43.12c0-3.316 2.068-7.312 4.507-8.721l69.507-40.132c.604-.34 1.472-.666 2.169-.263l5.281 3.043a1.163 1.163 0 0 0 1.162-2.013l-5.282-3.044c-1.285-.743-2.873-.65-4.484.263L89.033 70.87c-3.183 1.836-5.67 6.552-5.67 10.734v43.121c0 2.401.852 4.268 2.347 5.12l5.266 3.043c.186.109.38.155.581.155h-.008z" fill="#3A3A3A"/>
    </g>
    <g clip-path="url(#iwrv6pf7pc)">
        <path d="M256.432 87.204v21.579c0 7.289-4.815 14.568-14.434 20.115-19.249 11.115-50.437 11.115-69.666 0-9.619-5.557-14.424-12.826-14.424-20.115V87.204c0 7.28 4.805 14.568 14.424 20.115 19.239 11.114 50.427 11.114 69.666 0 9.619-5.557 14.424-12.836 14.424-20.115h.01z" fill="#3A3A3A"/>
        <path d="M241.987 67.1c9.62 5.557 14.424 12.836 14.424 20.104 0 7.269-4.804 14.568-14.424 20.115-19.249 11.115-50.437 11.115-69.666 0-9.619-5.557-14.424-12.836-14.424-20.115 0-7.279 4.805-14.558 14.424-20.105 19.239-11.114 50.438-11.114 69.666 0z" fill="#0F0"/>
        <path d="M207.148 117.165c-12.898 0-25.785-2.835-35.601-8.506-9.805-5.66-15.207-13.28-15.207-21.455 0-8.176 5.402-15.785 15.207-21.445 19.631-11.341 51.582-11.341 71.213 0 9.805 5.66 15.207 13.28 15.207 21.445 0 8.166-5.402 15.795-15.207 21.455-9.816 5.671-22.714 8.506-35.612 8.506zm0-56.87c-12.331 0-24.672 2.711-34.064 8.134-8.805 5.083-13.661 11.754-13.661 18.775 0 7.021 4.845 13.692 13.661 18.785 18.774 10.846 49.334 10.846 68.119 0 8.805-5.083 13.661-11.754 13.661-18.785 0-7.032-4.856-13.682-13.661-18.775-9.393-5.423-21.724-8.135-34.065-8.135h.01z" fill="#3A3A3A"/>
        <path d="M197.787 101.226h-.515a1.545 1.545 0 0 1-1.537-1.557c0-.846.701-1.536 1.547-1.536h.505c8.114 0 15.702-1.794 21.394-5.083 5.371-3.104 8.341-7.135 8.372-11.341 0-.856.701-1.537 1.546-1.537.856 0 1.547.702 1.547 1.557-.042 5.351-3.557 10.32-9.919 14.001-6.165 3.547-14.29 5.496-22.94 5.496zM195.076 91.988c-.258 0-.526-.062-.774-.206l-7.361-4.258a1.548 1.548 0 0 1 1.546-2.68l7.362 4.257a1.548 1.548 0 0 1-.773 2.887zM212.747 81.79a1.53 1.53 0 0 1-.773-.206l-7.361-4.258a1.547 1.547 0 1 1 1.546-2.68l7.362 4.258a1.548 1.548 0 0 1-.774 2.887z" fill="#3A3A3A"/>
        <path d="M207.148 138.744c-12.898 0-25.785-2.836-35.601-8.506-9.805-5.661-15.207-13.28-15.207-21.456V87.203c0-.856.691-1.546 1.546-1.546.856 0 1.547.69 1.547 1.546v21.579c0 7.032 4.846 13.692 13.661 18.785 18.775 10.847 49.334 10.847 68.119 0 8.815-5.082 13.661-11.753 13.661-18.785V87.203c0-.856.691-1.546 1.547-1.546.855 0 1.546.69 1.546 1.546v21.579c0 8.176-5.402 15.795-15.207 21.456-9.816 5.67-22.714 8.506-35.612 8.506z" fill="#3A3A3A"/>
    </g>
    <defs>
        <clipPath id="n048lquqsb">
            <path fill="#fff" transform="matrix(-1 0 0 1 170.637 29.981)" d="M0 0h87.273v103.412H0z"/>
        </clipPath>
        <clipPath id="iwrv6pf7pc">
            <path fill="#fff" transform="translate(43 57.254)" d="M0 0h214.967v103.019H0z"/>
        </clipPath>
        <radialGradient id="90xbkr3wea" cx="0" cy="0" r="1" gradientUnits="userSpaceOnUse" gradientTransform="matrix(0 75 -122.887 0 163.5 90)">
            <stop stop-color="#fff" stop-opacity=".3"/>
            <stop offset="1" stop-color="#2D2A26" stop-opacity="0"/>
        </radialGradient>
    </defs>
</svg>
