<svg width="327" height="180" viewBox="0 0 327 180" fill="none" xmlns="http://www.w3.org/2000/svg">
<path d="M23.9375 15H4V40M23.9375 15V40M23.9375 15H43.875M23.9375 40H4M23.9375 40V65M23.9375 40H43.875M4 40V65M23.9375 65H4M23.9375 65V90M23.9375 65H43.875M4 65V90M23.9375 90H4M23.9375 90V115M23.9375 90H43.875M4 90V115M23.9375 115H4M23.9375 115V140M23.9375 115H43.875M4 115V140M23.9375 140H4M23.9375 140V165M23.9375 140H43.875M4 140V165H23.9375M23.9375 165H43.875M43.875 15V40M43.875 15H63.8125M43.875 40V65M43.875 40H63.8125M43.875 65V90M43.875 65H63.8125M43.875 90V115M43.875 90H63.8125M43.875 115V140M43.875 115H63.8125M43.875 140V165M43.875 140H63.8125M43.875 165H63.8125M63.8125 15V40M63.8125 15H83.75M63.8125 40V65M63.8125 40H83.75M63.8125 65V90M63.8125 65H83.75M63.8125 90V115M63.8125 90H83.75M63.8125 115V140M63.8125 115H83.75M63.8125 140V165M63.8125 140H83.75M63.8125 165H83.75M83.75 15V40M83.75 15H103.688M83.75 40V65M83.75 40H103.688M83.75 65V90M83.75 65H103.688M83.75 90V115M83.75 90H103.688M83.75 115V140M83.75 115H103.688M83.75 140V165M83.75 140H103.688M83.75 165H103.688M103.688 15V40M103.688 15H123.625M103.688 40V65M103.688 40H123.625M103.688 65V90M103.688 65H123.625M103.688 90V115M103.688 90H123.625M103.688 115V140M103.688 115H123.625M103.688 140V165M103.688 140H123.625M103.688 165H123.625M123.625 15V40M123.625 15H143.563M123.625 40V65M123.625 40H143.563M123.625 65V90M123.625 65H143.563M123.625 90V115M123.625 90H143.563M123.625 115V140M123.625 115H143.563M123.625 140V165M123.625 140H143.563M123.625 165H143.563M143.563 15V40M143.563 15H163.5M143.563 40V65M143.563 40H163.5M143.563 65V90M143.563 65H163.5M143.563 90V115M143.563 90H163.5M143.563 115V140M143.563 115H163.5M143.563 140V165M143.563 140H163.5M143.563 165H163.5M163.5 15V40M163.5 15H183.438M163.5 40V65M163.5 40H183.438M163.5 65V90M163.5 65H183.438M163.5 90V115M163.5 90H183.438M163.5 115V140M163.5 115H183.438M163.5 140V165M163.5 140H183.438M163.5 165H183.438M183.438 15V40M183.438 15H203.375M183.438 40V65M183.438 40H203.375M183.438 65V90M183.438 65H203.375M183.438 90V115M183.438 90H203.375M183.438 115V140M183.438 115H203.375M183.438 140V165M183.438 140H203.375M183.438 165H203.375M203.375 15V40M203.375 15H223.313M203.375 40V65M203.375 40H223.313M203.375 65V90M203.375 65H223.313M203.375 90V115M203.375 90H223.313M203.375 115V140M203.375 115H223.313M203.375 140V165M203.375 140H223.313M203.375 165H223.313M223.313 15V40M223.313 15H243.25M223.313 40V65M223.313 40H243.25M223.313 65V90M223.313 65H243.25M223.313 90V115M223.313 90H243.25M223.313 115V140M223.313 115H243.25M223.313 140V165M223.313 140H243.25M223.313 165H243.25M243.25 15V40M243.25 15H263.188M243.25 40V65M243.25 40H263.188M243.25 65V90M243.25 65H263.188M243.25 90V115M243.25 90H263.188M243.25 115V140M243.25 115H263.188M243.25 140V165M243.25 140H263.188M243.25 165H263.188M263.188 15V40M263.188 15H283.125M263.188 40V65M263.188 40H283.125M263.188 65V90M263.188 65H283.125M263.188 90V115M263.188 90H283.125M263.188 115V140M263.188 115H283.125M263.188 140V165M263.188 140H283.125M263.188 165H283.125M283.125 15V40M283.125 15H303.063M283.125 40V65M283.125 40H303.063M283.125 65V90M283.125 65H303.063M283.125 90V115M283.125 90H303.063M283.125 115V140M283.125 115H303.063M283.125 140V165M283.125 140H303.063M283.125 165H303.063M303.063 15V40M303.063 15H323V40M303.063 40V65M303.063 40H323M303.063 65V90M303.063 65H323M303.063 90V115M303.063 90H323M303.063 115V140M303.063 115H323M303.063 140V165M303.063 140H323M303.063 165H323V140M323 40V65M323 65V90M323 90V115M323 115V140" stroke="url(#paint0_radial_1255_14511)"/>
<g clip-path="url(#clip0_1255_14511)">
<path d="M243.94 65.7148C243.906 65.3659 243.864 65.0085 243.813 64.6597L242.962 65.1532L243.94 65.7148Z" fill="#EFEFEF"/>
<path d="M243.881 72.1393C243.923 71.7649 243.966 71.3905 244 71.0161L242.97 71.6118L243.881 72.1393Z" fill="#EFEFEF"/>
<path d="M239.422 53.2743C239.056 52.7637 238.665 52.2702 238.256 51.7852L237.516 52.2106L239.388 53.2913L239.422 53.2743Z" fill="#EFEFEF"/>
<path d="M237.524 58.6778L239.396 59.7585L241.269 58.6778L239.396 57.5972L237.524 58.6778Z" fill="#EFEFEF"/>
<path d="M240.665 55.2061L240.248 55.4443L241.047 55.9123C240.92 55.6741 240.801 55.4358 240.665 55.2061Z" fill="#EFEFEF"/>
<path d="M239.396 64.064L237.524 65.1446L239.396 66.2253L241.269 65.1446L239.396 64.064Z" fill="#EFEFEF"/>
<path d="M242.12 62.9921L243.387 62.2603C243.328 61.988 243.26 61.7157 243.192 61.4434L242.12 60.8223L240.248 61.9029L242.12 62.9836V62.9921Z" fill="#EFEFEF"/>
<path d="M237.524 71.6119L239.396 72.6926L241.269 71.6119L239.396 70.5312L237.524 71.6119Z" fill="#EFEFEF"/>
<path d="M240.248 68.3785L242.12 69.4592L243.992 68.3785L242.12 67.2979L240.248 68.3785Z" fill="#EFEFEF"/>
<path d="M237.524 78.0787L239.396 79.1594L241.269 78.0787L239.396 76.998L237.524 78.0787Z" fill="#EFEFEF"/>
<path d="M240.248 74.8456L242.12 75.9263L243.362 75.2115C243.413 74.9988 243.464 74.786 243.507 74.5733L242.12 73.7734L240.248 74.8541V74.8456Z" fill="#EFEFEF"/>
<path d="M237.525 84.546L238.92 85.3544C239.278 84.8438 239.618 84.3163 239.941 83.7802L239.388 83.4653L237.516 84.546H237.525Z" fill="#EFEFEF"/>
<path d="M241.635 80.5127L240.248 81.3126L241.047 81.7721C241.252 81.3551 241.447 80.9382 241.635 80.5127Z" fill="#EFEFEF"/>
<path d="M233.951 53.2912L235.823 52.2106L233.951 51.1299L232.079 52.2106L233.951 53.2912Z" fill="#EFEFEF"/>
<path d="M235.15 48.7817L234.801 48.986L236.571 50.0071C236.12 49.5816 235.644 49.1732 235.15 48.7817Z" fill="#EFEFEF"/>
<path d="M232.079 58.6778L233.951 59.7585L235.823 58.6778L233.951 57.5972L232.079 58.6778Z" fill="#EFEFEF"/>
<path d="M236.673 56.5251L238.545 55.4444L236.673 54.3638L234.801 55.4444L236.673 56.5251Z" fill="#EFEFEF"/>
<path d="M232.079 65.1446L233.951 66.2253L235.823 65.1446L233.951 64.064L232.079 65.1446Z" fill="#EFEFEF"/>
<path d="M234.801 61.9112L236.673 62.9919L238.545 61.9112L236.673 60.8306L234.801 61.9112Z" fill="#EFEFEF"/>
<path d="M233.951 70.5312L232.079 71.6119L233.951 72.6926L235.823 71.6119L233.951 70.5312Z" fill="#EFEFEF"/>
<path d="M236.673 67.2979L234.801 68.3785L236.673 69.4592L238.545 68.3785L236.673 67.2979Z" fill="#EFEFEF"/>
<path d="M232.079 78.0787L233.951 79.1594L235.823 78.0787L233.951 76.998L232.079 78.0787Z" fill="#EFEFEF"/>
<path d="M234.801 74.8453L236.673 75.926L238.545 74.8453L236.673 73.7646L234.801 74.8453Z" fill="#EFEFEF"/>
<path d="M233.951 83.4653L232.079 84.546L233.951 85.6267L235.823 84.546L233.951 83.4653Z" fill="#EFEFEF"/>
<path d="M236.673 80.2319L234.801 81.3126L236.673 82.3933L238.545 81.3126L236.673 80.2319Z" fill="#EFEFEF"/>
<path d="M232.079 91.0131L232.895 91.4896C233.423 91.0812 233.934 90.6557 234.444 90.2217L233.951 89.9409L232.079 91.0216V91.0131Z" fill="#EFEFEF"/>
<path d="M234.801 87.7794L236.197 88.5878C236.648 88.1368 237.082 87.6603 237.499 87.1752L236.673 86.6987L234.801 87.7794Z" fill="#EFEFEF"/>
<path d="M230.172 45.863C229.432 45.5482 228.666 45.2759 227.866 45.0376L226.632 45.7524L228.504 46.8331L230.172 45.8715V45.863Z" fill="#EFEFEF"/>
<path d="M226.632 52.2106L228.504 53.2912L230.376 52.2106L228.504 51.1299L226.632 52.2106Z" fill="#EFEFEF"/>
<path d="M231.228 50.0578L233.1 48.9772L231.228 47.8965L229.355 48.9772L231.228 50.0578Z" fill="#EFEFEF"/>
<path d="M226.632 58.6778L228.504 59.7585L230.376 58.6778L228.504 57.5972L226.632 58.6778Z" fill="#EFEFEF"/>
<path d="M229.355 55.4444L231.228 56.5251L233.1 55.4444L231.228 54.3638L229.355 55.4444Z" fill="#EFEFEF"/>
<path d="M226.632 65.1446L228.504 66.2253L230.376 65.1446L228.504 64.064L226.632 65.1446Z" fill="#EFEFEF"/>
<path d="M229.355 61.9112L231.228 62.9919L233.1 61.9112L231.228 60.8306L229.355 61.9112Z" fill="#EFEFEF"/>
<path d="M226.632 71.6119L228.504 72.6926L230.376 71.6119L228.504 70.5312L226.632 71.6119Z" fill="#EFEFEF"/>
<path d="M229.355 68.3785L231.228 69.4592L233.1 68.3785L231.228 67.2979L229.355 68.3785Z" fill="#EFEFEF"/>
<path d="M228.504 76.998L226.632 78.0787L228.504 79.1594L230.376 78.0787L228.504 76.998Z" fill="#EFEFEF"/>
<path d="M231.228 73.7646L229.355 74.8453L231.228 75.926L233.1 74.8453L231.228 73.7646Z" fill="#EFEFEF"/>
<path d="M226.632 84.546L228.504 85.6267L230.376 84.546L228.504 83.4653L226.632 84.546Z" fill="#EFEFEF"/>
<path d="M229.355 81.3126L231.228 82.3933L233.1 81.3126L231.228 80.2319L229.355 81.3126Z" fill="#EFEFEF"/>
<path d="M228.504 89.9326L226.632 91.0133L228.504 92.094L230.376 91.0133L228.504 89.9326Z" fill="#EFEFEF"/>
<path d="M231.228 86.6987L229.355 87.7794L231.228 88.8601L233.1 87.7794L231.228 86.6987Z" fill="#EFEFEF"/>
<path d="M221.187 45.7438L223.059 46.8244L224.931 45.7438L223.059 44.6631L221.187 45.7438Z" fill="#EFEFEF"/>
<path d="M221.187 52.2106L223.059 53.2912L224.931 52.2106L223.059 51.1299L221.187 52.2106Z" fill="#EFEFEF"/>
<path d="M223.91 48.9772L225.782 50.0578L227.654 48.9772L225.782 47.8965L223.91 48.9772Z" fill="#EFEFEF"/>
<path d="M221.187 58.6778L223.059 59.7585L224.931 58.6778L223.059 57.5972L221.187 58.6778Z" fill="#EFEFEF"/>
<path d="M223.91 55.4444L225.782 56.5251L227.654 55.4444L225.782 54.3638L223.91 55.4444Z" fill="#EFEFEF"/>
<path d="M221.187 65.1446L223.059 66.2253L224.931 65.1446L223.059 64.064L221.187 65.1446Z" fill="#EFEFEF"/>
<path d="M223.91 61.9112L225.782 62.9919L227.654 61.9112L225.782 60.8306L223.91 61.9112Z" fill="#EFEFEF"/>
<path d="M222.437 70.8886C222.352 71.3056 222.225 71.714 222.046 72.1055L223.059 72.6926L224.931 71.6119L223.059 70.5312L222.437 70.8886Z" fill="#EFEFEF"/>
<path d="M223.91 68.3785L225.782 69.4592L227.654 68.3785L225.782 67.2979L223.91 68.3785Z" fill="#EFEFEF"/>
<path d="M221.187 78.0787L223.059 79.1594L224.931 78.0787L223.059 76.998L221.187 78.0787Z" fill="#EFEFEF"/>
<path d="M223.91 74.8453L225.782 75.926L227.654 74.8453L225.782 73.7646L223.91 74.8453Z" fill="#EFEFEF"/>
<path d="M223.059 85.6267L224.931 84.546L223.059 83.4653L221.187 84.546L223.059 85.6267Z" fill="#EFEFEF"/>
<path d="M225.782 80.2319L223.91 81.3126L225.782 82.3933L227.654 81.3126L225.782 80.2319Z" fill="#EFEFEF"/>
<path d="M223.059 92.094L224.931 91.0133L223.059 89.9326L221.187 91.0133L223.059 92.094Z" fill="#EFEFEF"/>
<path d="M223.91 87.7794L225.782 88.8601L227.654 87.7794L225.782 86.6987L223.91 87.7794Z" fill="#EFEFEF"/>
<path d="M221.187 97.4803L222.046 97.9738C222.727 97.6505 223.399 97.3186 224.071 96.9783L223.059 96.3911L221.187 97.4718V97.4803Z" fill="#EFEFEF"/>
<path d="M227.654 94.2467L225.782 93.166L223.91 94.2467L225.782 95.3274L227.654 94.2467Z" fill="#EFEFEF"/>
<path d="M215.741 52.2106L217.613 53.2912L219.485 52.2106L217.613 51.1299L215.741 52.2106Z" fill="#EFEFEF"/>
<path d="M218.464 48.9772L220.336 50.0578L222.208 48.9772L220.336 47.8965L218.464 48.9772Z" fill="#EFEFEF"/>
<path d="M215.741 58.6778L217.613 59.7585L219.485 58.6778L217.613 57.5972L215.741 58.6778Z" fill="#EFEFEF"/>
<path d="M218.464 55.4444L220.336 56.5251L222.208 55.4444L220.336 54.3638L218.464 55.4444Z" fill="#EFEFEF"/>
<path d="M219.408 65.1025C219.408 65.1025 219.45 65.1366 219.467 65.1536H219.476L219.399 65.1025H219.408Z" fill="#EFEFEF"/>
<path d="M218.464 61.9112L220.336 62.9919L222.208 61.9112L220.336 60.8306L218.464 61.9112Z" fill="#EFEFEF"/>
<path d="M219.485 78.0787L217.613 76.998L217.017 77.3384C216.617 77.6107 216.217 77.8745 215.826 78.1298L217.613 79.1594L219.485 78.0787Z" fill="#EFEFEF"/>
<path d="M222.208 74.8453L220.821 74.0454C220.421 74.5304 219.961 74.9899 219.476 75.4324L220.336 75.9345L222.208 74.8538V74.8453Z" fill="#EFEFEF"/>
<path d="M217.613 85.6267L219.485 84.546L217.613 83.4653L215.741 84.546L217.613 85.6267Z" fill="#EFEFEF"/>
<path d="M220.336 82.3933L222.208 81.3126L220.336 80.2319L218.464 81.3126L220.336 82.3933Z" fill="#EFEFEF"/>
<path d="M215.741 91.0133L217.613 92.094L219.485 91.0133L217.613 89.9326L215.741 91.0133Z" fill="#EFEFEF"/>
<path d="M220.336 88.8601L222.208 87.7794L220.336 86.6987L218.464 87.7794L220.336 88.8601Z" fill="#EFEFEF"/>
<path d="M215.741 97.4801L217.613 98.5608L219.485 97.4801L217.613 96.3994L215.741 97.4801Z" fill="#EFEFEF"/>
<path d="M218.464 94.2467L220.336 95.3274L222.208 94.2467L220.336 93.166L218.464 94.2467Z" fill="#EFEFEF"/>
<path d="M213.682 52.4149L214.031 52.2106L213.818 52.083C213.775 52.1936 213.724 52.3043 213.682 52.4064V52.4149Z" fill="#EFEFEF"/>
<path d="M216.047 48.5688C215.63 49.0369 215.247 49.5304 214.907 50.041L216.753 48.9773L216.047 48.5688Z" fill="#EFEFEF"/>
<path d="M214.039 58.6776L213.281 58.2437C213.349 58.4904 213.426 58.7372 213.52 58.9755L214.039 58.6776Z" fill="#EFEFEF"/>
<path d="M214.89 56.5251L216.762 55.4444L214.89 54.3638L213.018 55.4444L214.89 56.5251Z" fill="#EFEFEF"/>
<path d="M214.89 60.8306L214.609 60.9922C214.966 61.4858 215.392 61.9623 215.885 62.4218L216.77 61.9112L214.898 60.8306H214.89Z" fill="#EFEFEF"/>
<path d="M210.295 84.546L212.167 85.6267L214.039 84.546L212.167 83.4653L210.295 84.546Z" fill="#EFEFEF"/>
<path d="M214.89 82.3933L216.762 81.3126L214.89 80.2319L213.018 81.3126L214.89 82.3933Z" fill="#EFEFEF"/>
<path d="M210.295 91.0133L212.167 92.094L214.039 91.0133L212.167 89.9326L210.295 91.0133Z" fill="#EFEFEF"/>
<path d="M213.018 87.7794L214.89 88.8601L216.762 87.7794L214.89 86.6987L213.018 87.7794Z" fill="#EFEFEF"/>
<path d="M210.295 97.4801L212.167 98.5608L214.039 97.4801L212.167 96.3994L210.295 97.4801Z" fill="#EFEFEF"/>
<path d="M213.018 94.2467L214.89 95.3274L216.762 94.2467L214.89 93.166L213.018 94.2467Z" fill="#EFEFEF"/>
<path d="M213.018 100.713L214.2 101.394C214.924 101.096 215.655 100.799 216.379 100.492L214.89 99.6328L213.018 100.713Z" fill="#EFEFEF"/>
<path d="M204.849 84.546L206.721 85.6267L208.593 84.546L206.721 83.4653L204.849 84.546Z" fill="#EFEFEF"/>
<path d="M211.316 81.3123L210.839 81.04C210.201 81.3974 209.58 81.7633 208.942 82.1037L209.444 82.393L211.316 81.3123Z" fill="#EFEFEF"/>
<path d="M204.849 91.0133L206.721 92.094L208.593 91.0133L206.721 89.9326L204.849 91.0133Z" fill="#EFEFEF"/>
<path d="M209.444 88.8601L211.316 87.7794L209.444 86.6987L207.572 87.7794L209.444 88.8601Z" fill="#EFEFEF"/>
<path d="M204.849 97.4801L206.721 98.5608L208.593 97.4801L206.721 96.3994L204.849 97.4801Z" fill="#EFEFEF"/>
<path d="M207.572 94.2467L209.444 95.3274L211.316 94.2467L209.444 93.166L207.572 94.2467Z" fill="#EFEFEF"/>
<path d="M208.278 103.769L206.721 102.867L204.849 103.947L206.023 104.628C206.772 104.347 207.529 104.058 208.278 103.769Z" fill="#EFEFEF"/>
<path d="M207.572 100.713L209.444 101.794L211.316 100.713L209.444 99.6328L207.572 100.713Z" fill="#EFEFEF"/>
<path d="M199.403 91.0133L201.275 92.094L203.147 91.0133L201.275 89.9326L199.403 91.0133Z" fill="#EFEFEF"/>
<path d="M202.126 87.7794L203.998 88.8601L205.87 87.7794L203.998 86.6987L202.126 87.7794Z" fill="#EFEFEF"/>
<path d="M199.403 97.4801L201.275 98.5608L203.147 97.4801L201.275 96.3994L199.403 97.4801Z" fill="#EFEFEF"/>
<path d="M202.126 94.2467L203.998 95.3274L205.87 94.2467L203.998 93.166L202.126 94.2467Z" fill="#EFEFEF"/>
<path d="M201.275 102.867L199.403 103.947L201.275 105.028L203.147 103.947L201.275 102.867Z" fill="#EFEFEF"/>
<path d="M205.87 100.713L203.998 99.6328L202.126 100.713L203.998 101.794L205.87 100.713Z" fill="#EFEFEF"/>
<path d="M202.73 110.653C202.756 110.508 202.773 110.363 202.79 110.219L201.267 109.342L199.395 110.423L201.267 111.504L202.73 110.661V110.653Z" fill="#EFEFEF"/>
<path d="M202.126 107.18L202.73 107.529C202.696 107.317 202.645 107.112 202.594 106.908L202.126 107.18Z" fill="#EFEFEF"/>
<path d="M193.957 91.0133L195.829 92.094L197.701 91.0133L195.829 89.9326L193.957 91.0133Z" fill="#EFEFEF"/>
<path d="M196.739 87.8223L198.543 88.8605L200.415 87.7798L198.892 86.9033C198.177 87.2097 197.454 87.5245 196.739 87.8223Z" fill="#EFEFEF"/>
<path d="M193.957 97.4801L195.829 98.5608L197.701 97.4801L195.829 96.3994L193.957 97.4801Z" fill="#EFEFEF"/>
<path d="M196.68 94.2467L198.552 95.3274L200.424 94.2467L198.552 93.166L196.68 94.2467Z" fill="#EFEFEF"/>
<path d="M197.701 103.947L195.829 102.867L193.957 103.947L195.829 105.028L197.701 103.947Z" fill="#EFEFEF"/>
<path d="M200.424 100.713L198.552 99.6328L196.68 100.713L198.552 101.794L200.424 100.713Z" fill="#EFEFEF"/>
<path d="M197.701 110.414L195.829 109.333L193.957 110.414L195.829 111.495L197.701 110.414Z" fill="#EFEFEF"/>
<path d="M200.424 107.181L198.552 106.1L196.68 107.181L198.552 108.261L200.424 107.181Z" fill="#EFEFEF"/>
<path d="M195.829 115.801L193.957 116.881L195.829 117.962L197.701 116.881L195.829 115.801Z" fill="#EFEFEF"/>
<path d="M198.552 112.567L196.68 113.648L198.552 114.728L200.424 113.648L198.552 112.567Z" fill="#EFEFEF"/>
<path d="M188.775 90.8601L188.511 91.0132L190.383 92.0939L192.255 91.0132L190.757 90.1538C190.102 90.3921 189.438 90.6303 188.775 90.8601Z" fill="#EFEFEF"/>
<path d="M188.511 97.4801L190.383 98.5608L192.255 97.4801L190.383 96.3994L188.511 97.4801Z" fill="#EFEFEF"/>
<path d="M191.234 94.2467L193.106 95.3274L194.978 94.2467L193.106 93.166L191.234 94.2467Z" fill="#EFEFEF"/>
<path d="M192.255 103.947L190.383 102.867L188.511 103.947L190.383 105.028L192.255 103.947Z" fill="#EFEFEF"/>
<path d="M194.978 100.713L193.106 99.6328L191.234 100.713L193.106 101.794L194.978 100.713Z" fill="#EFEFEF"/>
<path d="M192.255 110.414L190.383 109.333L188.511 110.414L190.383 111.495L192.255 110.414Z" fill="#EFEFEF"/>
<path d="M194.978 107.181L193.106 106.1L191.234 107.181L193.106 108.261L194.978 107.181Z" fill="#EFEFEF"/>
<path d="M192.255 116.881L190.383 115.801L188.511 116.881L190.383 117.962L192.255 116.881Z" fill="#EFEFEF"/>
<path d="M193.106 112.567L191.234 113.648L193.106 114.728L194.978 113.648L193.106 112.567Z" fill="#EFEFEF"/>
<path d="M191.234 120.115L192.238 120.693L194.05 119.587L193.106 119.034L191.234 120.115Z" fill="#EFEFEF"/>
<path d="M183.065 97.4801L184.937 98.5608L186.809 97.4801L184.937 96.3994L183.065 97.4801Z" fill="#EFEFEF"/>
<path d="M187.66 95.3274L189.532 94.2467L187.66 93.166L185.788 94.2467L187.66 95.3274Z" fill="#EFEFEF"/>
<path d="M183.065 103.947L184.937 105.028L186.809 103.947L184.937 102.867L183.065 103.947Z" fill="#EFEFEF"/>
<path d="M185.788 100.713L187.66 101.794L189.532 100.713L187.66 99.6328L185.788 100.713Z" fill="#EFEFEF"/>
<path d="M186.809 110.414L184.937 109.333L183.065 110.414L184.937 111.495L186.809 110.414Z" fill="#EFEFEF"/>
<path d="M185.788 107.181L187.66 108.261L189.532 107.181L187.66 106.1L185.788 107.181Z" fill="#EFEFEF"/>
<path d="M186.809 116.881L184.937 115.801L183.065 116.881L184.937 117.962L186.809 116.881Z" fill="#EFEFEF"/>
<path d="M189.532 113.648L187.66 112.567L185.788 113.648L187.66 114.728L189.532 113.648Z" fill="#EFEFEF"/>
<path d="M186.809 123.348L184.937 122.268L183.065 123.348L184.937 124.429L186.809 123.348Z" fill="#EFEFEF"/>
<path d="M189.532 120.115L187.66 119.034L185.788 120.115L187.66 121.196L189.532 120.115Z" fill="#EFEFEF"/>
<path d="M184.256 135.593L183.065 136.283L184.775 137.27C184.69 136.691 184.512 136.129 184.256 135.593Z" fill="#EFEFEF"/>
<path d="M183.388 142.562L183.065 142.75L183.176 142.818C183.244 142.733 183.32 142.656 183.388 142.562Z" fill="#EFEFEF"/>
<path d="M179.491 96.3994L177.619 97.4801L179.491 98.5608L181.363 97.4801L179.491 96.3994Z" fill="#EFEFEF"/>
<path d="M182.214 93.166L180.342 94.2467L182.214 95.3274L184.086 94.2467L182.214 93.166Z" fill="#EFEFEF"/>
<path d="M181.363 103.947L179.491 102.867L177.619 103.947L179.491 105.028L181.363 103.947Z" fill="#EFEFEF"/>
<path d="M180.342 100.713L182.214 101.794L184.086 100.713L182.214 99.6328L180.342 100.713Z" fill="#EFEFEF"/>
<path d="M181.363 110.414L179.491 109.333L177.619 110.414L179.491 111.495L181.363 110.414Z" fill="#EFEFEF"/>
<path d="M184.086 107.181L182.214 106.1L180.342 107.181L182.214 108.261L184.086 107.181Z" fill="#EFEFEF"/>
<path d="M181.363 116.881L179.491 115.801L177.619 116.881L179.491 117.962L181.363 116.881Z" fill="#EFEFEF"/>
<path d="M184.086 113.648L182.214 112.567L180.342 113.648L182.214 114.728L184.086 113.648Z" fill="#EFEFEF"/>
<path d="M181.363 123.348L179.491 122.268L177.619 123.348L179.491 124.429L181.363 123.348Z" fill="#EFEFEF"/>
<path d="M184.086 120.115L182.214 119.034L180.342 120.115L182.214 121.196L184.086 120.115Z" fill="#EFEFEF"/>
<path d="M182.214 125.501L180.342 126.582L181.483 127.245L183.312 126.139L182.214 125.501Z" fill="#EFEFEF"/>
<path d="M181.363 136.282L179.491 135.202L177.619 136.282L179.491 137.363L181.363 136.282Z" fill="#EFEFEF"/>
<path d="M182.87 133.755H182.861C182.367 133.304 181.848 132.887 181.329 132.479L180.342 133.049L182.214 134.13L182.87 133.747V133.755Z" fill="#EFEFEF"/>
<path d="M181.363 142.75L179.491 141.669L177.619 142.75L179.491 143.83L181.363 142.75Z" fill="#EFEFEF"/>
<path d="M182.214 138.435L180.342 139.516L182.214 140.596L184.086 139.516L182.214 138.435Z" fill="#EFEFEF"/>
<path d="M175.917 97.4802L174.207 96.4932C173.739 96.9356 173.339 97.4292 172.99 97.9483L174.045 98.5524L175.917 97.4717V97.4802Z" fill="#EFEFEF"/>
<path d="M178.64 94.2466L178.538 94.187C178.351 94.2466 178.155 94.3061 177.968 94.3572C177.355 94.5359 176.811 94.7741 176.283 95.0464L176.76 95.3273L178.632 94.2466H178.64Z" fill="#EFEFEF"/>
<path d="M175.917 103.947L174.045 102.867L172.173 103.947L174.045 105.028L175.917 103.947Z" fill="#EFEFEF"/>
<path d="M178.64 100.713L176.768 99.6328L174.896 100.713L176.768 101.794L178.64 100.713Z" fill="#EFEFEF"/>
<path d="M175.917 110.414L174.045 109.333L173.807 109.47C174.241 109.955 174.726 110.389 175.279 110.78L175.917 110.414Z" fill="#EFEFEF"/>
<path d="M176.768 108.261L178.64 107.181L176.768 106.1L174.896 107.181L176.768 108.261Z" fill="#EFEFEF"/>
<path d="M175.917 116.881L174.045 115.801L172.173 116.881L174.045 117.962L175.917 116.881Z" fill="#EFEFEF"/>
<path d="M178.64 113.648L176.768 112.567L174.896 113.648L176.768 114.728L178.64 113.648Z" fill="#EFEFEF"/>
<path d="M175.917 123.348L174.045 122.268L172.173 123.348L174.045 124.429L175.917 123.348Z" fill="#EFEFEF"/>
<path d="M178.64 120.115L176.768 119.034L174.896 120.115L176.768 121.196L178.64 120.115Z" fill="#EFEFEF"/>
<path d="M175.917 129.816L174.045 128.735L172.173 129.816L174.045 130.896L175.917 129.816Z" fill="#EFEFEF"/>
<path d="M178.64 126.582L176.768 125.501L174.896 126.582L176.768 127.662L178.64 126.582Z" fill="#EFEFEF"/>
<path d="M175.917 136.282L174.045 135.202L172.173 136.282L174.045 137.363L175.917 136.282Z" fill="#EFEFEF"/>
<path d="M178.64 133.049L176.768 131.968L174.896 133.049L176.768 134.13L178.64 133.049Z" fill="#EFEFEF"/>
<path d="M175.917 142.75L174.045 141.669L172.173 142.75L174.045 143.83L175.917 142.75Z" fill="#EFEFEF"/>
<path d="M178.64 139.516L176.768 138.435L174.896 139.516L176.768 140.596L178.64 139.516Z" fill="#EFEFEF"/>
<path d="M176.768 144.902L174.896 145.983L175.866 146.545C176.589 146.213 177.321 145.915 178.053 145.643L176.768 144.902Z" fill="#EFEFEF"/>
<path d="M171.96 100.007C171.773 100.552 171.629 101.105 171.543 101.675L173.194 100.722L171.96 100.007Z" fill="#EFEFEF"/>
<path d="M172.497 107.58L173.186 107.181L172.02 106.508C172.156 106.874 172.318 107.232 172.497 107.58Z" fill="#EFEFEF"/>
<path d="M170.471 116.881L168.599 115.801L166.727 116.881L168.599 117.962L170.471 116.881Z" fill="#EFEFEF"/>
<path d="M173.194 113.648L172.173 113.069L170.395 114.201L171.322 114.729L173.194 113.648Z" fill="#EFEFEF"/>
<path d="M170.471 123.348L168.599 122.268L166.727 123.348L168.599 124.429L170.471 123.348Z" fill="#EFEFEF"/>
<path d="M173.194 120.115L171.322 119.034L169.45 120.115L171.322 121.196L173.194 120.115Z" fill="#EFEFEF"/>
<path d="M170.471 129.816L168.599 128.735L166.727 129.816L168.599 130.896L170.471 129.816Z" fill="#EFEFEF"/>
<path d="M173.194 126.582L171.322 125.501L169.45 126.582L171.322 127.662L173.194 126.582Z" fill="#EFEFEF"/>
<path d="M170.471 136.282L168.599 135.202L166.727 136.282L168.599 137.363L170.471 136.282Z" fill="#EFEFEF"/>
<path d="M173.194 133.049L171.322 131.968L169.45 133.049L171.322 134.13L173.194 133.049Z" fill="#EFEFEF"/>
<path d="M170.471 142.75L168.599 141.669L166.727 142.75L168.599 143.83L170.471 142.75Z" fill="#EFEFEF"/>
<path d="M173.194 139.516L171.322 138.435L169.45 139.516L171.322 140.596L173.194 139.516Z" fill="#EFEFEF"/>
<path d="M168.599 148.136L166.727 149.216L168.599 150.297L170.471 149.216L168.599 148.136Z" fill="#EFEFEF"/>
<path d="M173.194 145.983L171.322 144.902L169.45 145.983L171.322 147.064L173.194 145.983Z" fill="#EFEFEF"/>
<path d="M165.025 123.348L163.153 122.268L161.281 123.348L163.153 124.429L165.025 123.348Z" fill="#EFEFEF"/>
<path d="M167.748 120.115L165.876 119.034L164.004 120.115L165.876 121.196L167.748 120.115Z" fill="#EFEFEF"/>
<path d="M165.025 129.816L163.153 128.735L161.281 129.816L163.153 130.896L165.025 129.816Z" fill="#EFEFEF"/>
<path d="M167.748 126.582L165.876 125.501L164.004 126.582L165.876 127.662L167.748 126.582Z" fill="#EFEFEF"/>
<path d="M165.025 136.282L163.153 135.202L161.281 136.282L163.153 137.363L165.025 136.282Z" fill="#EFEFEF"/>
<path d="M167.748 133.049L165.876 131.968L164.004 133.049L165.876 134.13L167.748 133.049Z" fill="#EFEFEF"/>
<path d="M165.025 142.75L163.153 141.669L161.281 142.75L163.153 143.83L165.025 142.75Z" fill="#EFEFEF"/>
<path d="M167.748 139.516L165.876 138.435L164.004 139.516L165.876 140.596L167.748 139.516Z" fill="#EFEFEF"/>
<path d="M165.025 149.216L163.153 148.136L161.281 149.216L163.153 150.297L165.025 149.216Z" fill="#EFEFEF"/>
<path d="M167.748 145.983L165.876 144.902L164.004 145.983L165.876 147.064L167.748 145.983Z" fill="#EFEFEF"/>
<path d="M166.625 151.812L165.868 151.378L163.996 152.459L164.83 152.944C165.425 152.569 166.021 152.195 166.616 151.812H166.625Z" fill="#EFEFEF"/>
<path d="M156.048 123.476L157.707 124.429L159.579 123.348L157.784 122.31C157.316 122.616 156.848 122.914 156.388 123.221C156.269 123.297 156.167 123.391 156.056 123.476H156.048Z" fill="#EFEFEF"/>
<path d="M162.303 120.115L161.698 119.774L159.937 120.915L160.431 121.195L162.303 120.115Z" fill="#EFEFEF"/>
<path d="M159.58 129.816L157.707 128.735L155.835 129.816L157.707 130.896L159.58 129.816Z" fill="#EFEFEF"/>
<path d="M162.302 126.582L160.43 125.501L158.558 126.582L160.43 127.662L162.302 126.582Z" fill="#EFEFEF"/>
<path d="M157.707 135.202L155.835 136.282L157.707 137.363L159.58 136.282L157.707 135.202Z" fill="#EFEFEF"/>
<path d="M162.302 133.049L160.43 131.968L158.558 133.049L160.43 134.13L162.302 133.049Z" fill="#EFEFEF"/>
<path d="M157.707 143.83L159.579 142.749L159.179 142.52C158.516 142.86 157.869 143.209 157.222 143.549L157.707 143.83Z" fill="#EFEFEF"/>
<path d="M162.302 139.516L160.43 138.435L159.724 138.844C160.405 139.167 161.094 139.49 161.783 139.814L162.302 139.516Z" fill="#EFEFEF"/>
<path d="M159.58 149.216L157.707 148.136L155.835 149.216L157.707 150.297L159.58 149.216Z" fill="#EFEFEF"/>
<path d="M162.302 145.983L160.43 144.902L158.558 145.983L160.43 147.064L162.302 145.983Z" fill="#EFEFEF"/>
<path d="M157.707 154.603L155.835 155.684L157.707 156.764L159.58 155.684L157.707 154.603Z" fill="#EFEFEF"/>
<path d="M162.302 152.45L160.43 151.369L158.558 152.45L160.43 153.53L162.302 152.45Z" fill="#EFEFEF"/>
<path d="M152.636 128.956C152.5 129.569 152.423 130.19 152.406 130.811L154.125 129.815L152.627 128.956H152.636Z" fill="#EFEFEF"/>
<path d="M156.856 126.582L154.984 125.501L153.64 126.275C153.555 126.428 153.487 126.59 153.41 126.752L154.984 127.662L156.856 126.582Z" fill="#EFEFEF"/>
<path d="M154.984 134.13L156.856 133.049L154.984 131.968L153.112 133.049L154.984 134.13Z" fill="#EFEFEF"/>
<path d="M154.133 149.216L152.261 148.136L150.389 149.216L152.261 150.297L154.133 149.216Z" fill="#EFEFEF"/>
<path d="M156.856 145.983L154.984 144.902L153.112 145.983L154.984 147.064L156.856 145.983Z" fill="#EFEFEF"/>
<path d="M154.133 155.684L152.261 154.603L150.389 155.684L152.261 156.764L154.133 155.684Z" fill="#EFEFEF"/>
<path d="M154.984 151.369L153.112 152.45L154.984 153.53L156.856 152.45L154.984 151.369Z" fill="#EFEFEF"/>
<path d="M153.112 158.917L153.742 159.283C154.38 158.934 155.018 158.577 155.648 158.228L154.984 157.845L153.112 158.925V158.917Z" fill="#EFEFEF"/>
<path d="M148.688 149.217L148.066 148.859C147.454 149.225 146.833 149.583 146.211 149.949L146.807 150.297L148.679 149.217H148.688Z" fill="#EFEFEF"/>
<path d="M148.687 155.684L146.815 154.603L144.943 155.684L146.815 156.764L148.687 155.684Z" fill="#EFEFEF"/>
<path d="M151.411 152.45L149.539 151.369L147.667 152.45L149.539 153.53L151.411 152.45Z" fill="#EFEFEF"/>
<path d="M148.611 162.108L146.815 161.07L144.943 162.151L146.696 163.163L148.611 162.108Z" fill="#EFEFEF"/>
<path d="M151.411 158.917L149.539 157.836L147.667 158.917L149.539 159.998L151.411 158.917Z" fill="#EFEFEF"/>
<path d="M143.242 155.684L141.37 154.603L139.498 155.684L141.37 156.764L143.242 155.684Z" fill="#EFEFEF"/>
<path d="M145.965 152.45L144.093 151.369L142.221 152.45L144.093 153.53L145.965 152.45Z" fill="#EFEFEF"/>
<path d="M143.242 162.151L141.37 161.07L139.498 162.151L141.37 163.231L143.242 162.151Z" fill="#EFEFEF"/>
<path d="M144.093 157.836L142.221 158.917L144.093 159.998L145.965 158.917L144.093 157.836Z" fill="#EFEFEF"/>
<path d="M142.433 165.512L144.348 164.457L144.093 164.304L142.221 165.384L142.433 165.512Z" fill="#EFEFEF"/>
<path d="M137.796 155.684L137.174 155.326L136.664 155.633C136.213 155.896 135.83 156.203 135.498 156.517L135.924 156.764L137.796 155.684Z" fill="#EFEFEF"/>
<path d="M135.924 163.231L137.796 162.151L135.924 161.07L134.196 162.065C134.222 162.133 134.239 162.202 134.264 162.27L135.924 163.223V163.231Z" fill="#EFEFEF"/>
<path d="M140.518 158.917L138.646 157.836L136.774 158.917L138.646 159.998L140.518 158.917Z" fill="#EFEFEF"/>
<path d="M138.646 164.304L136.774 165.384L137.634 165.886C138.076 166.065 138.536 166.193 139.021 166.252L140.518 165.393L138.646 164.312V164.304Z" fill="#EFEFEF"/>
<path d="M134.222 158.432C134.086 158.806 133.992 159.189 133.941 159.572L135.073 158.917L134.222 158.423V158.432Z" fill="#EFEFEF"/>
<path d="M190.987 107.035L157.12 126.581L138.136 115.621L119.152 126.581L85.2764 107.018L138.136 76.5127L190.987 107.035Z" fill="#FDFDFD"/>
<path d="M174.964 136.894L138.136 158.159L101.299 136.894L119.152 126.581L138.136 137.541L157.12 126.581L174.964 136.894Z" fill="#A7A7A7"/>
<path d="M157.12 126.582L138.136 137.541L119.152 126.582L138.136 115.622L157.12 126.582Z" fill="#2D2A26"/>
<path d="M138.136 138.818C137.915 138.818 137.694 138.758 137.498 138.648L84.6382 108.125C84.2468 107.895 84 107.478 84 107.019C84 106.559 84.2468 106.142 84.6382 105.912L137.498 75.4067C137.898 75.1769 138.383 75.1769 138.774 75.4067L191.625 105.921C192.017 106.151 192.264 106.568 192.264 107.027C192.264 107.487 192.017 107.904 191.625 108.133L138.774 138.639C138.579 138.75 138.357 138.809 138.136 138.809V138.818ZM119.79 125.475L138.136 136.069L188.434 107.036L138.136 77.9935L87.8292 107.019L119.79 125.475Z" fill="#2D2A26"/>
<path d="M138.136 159.436C137.915 159.436 137.694 159.376 137.498 159.266L100.661 138.001C100.27 137.771 100.023 137.354 100.023 136.895C100.023 136.435 100.27 136.019 100.661 135.789L118.514 125.476L137.498 114.516C137.889 114.286 138.383 114.286 138.774 114.516L175.602 135.789C175.994 136.019 176.241 136.435 176.241 136.895C176.241 137.354 175.994 137.771 175.602 138.001L138.774 159.266C138.579 159.376 138.357 159.436 138.136 159.436ZM103.852 136.895L138.136 156.688L172.411 136.903L138.136 117.102L119.79 127.696L103.852 136.903V136.895Z" fill="#2D2A26"/>
<path d="M232.24 47.8794V64.3789C232.24 72.9988 226.539 81.6017 215.162 88.1708C192.409 101.309 155.521 101.309 132.775 88.1708C121.39 81.6102 115.714 72.9988 115.714 64.3789V47.8794C115.714 56.4823 121.399 65.0937 132.775 71.6713C155.521 84.8097 192.409 84.8097 215.162 71.6713C226.548 65.0937 232.223 56.4823 232.223 47.8794H232.24Z" fill="#636363"/>
<path d="M215.162 24.0959C226.548 30.6736 232.223 39.2765 232.223 47.8794C232.223 56.4823 226.539 65.0936 215.162 71.6713C192.408 84.8096 155.521 84.8096 132.775 71.6713C121.39 65.0936 115.714 56.4823 115.714 47.8794C115.714 39.2765 121.399 30.6736 132.775 24.0959C155.521 10.9576 192.417 10.9576 215.162 24.0959Z" fill="#00FF00"/>
<path d="M173.969 82.7674C158.822 82.7674 143.676 79.4403 132.146 72.7776C120.735 66.1829 114.446 57.3417 114.446 47.8794C114.446 38.4171 120.735 29.5844 132.146 22.9898C155.214 9.66422 192.74 9.66422 215.809 22.9898C227.22 29.5844 233.508 38.4256 233.508 47.8794C233.508 57.3332 227.22 66.1829 215.809 72.7776C204.279 79.4403 189.124 82.7674 173.977 82.7674H173.969ZM173.969 15.5186C159.282 15.5186 144.595 18.7436 133.413 25.2022C122.819 31.3203 116.991 39.3701 116.991 47.8794C116.991 56.3887 122.819 64.447 133.413 70.5651C155.767 83.4822 192.153 83.4822 214.524 70.5651C225.118 64.447 230.947 56.3887 230.947 47.8794C230.947 39.3701 225.118 31.3203 214.524 25.2022C203.343 18.7436 188.656 15.5186 173.969 15.5186Z" fill="#2D2A26"/>
<path d="M208.712 45.2331C208.908 45.2331 209.095 45.2331 209.291 45.2331C209.997 45.2331 210.558 45.8118 210.558 46.518C210.558 47.2243 209.954 47.7689 209.274 47.7859C199.369 47.7093 190.077 49.8622 183.116 53.87C176.589 57.6396 172.981 62.5665 172.947 67.7402C172.947 68.4464 172.369 69.008 171.671 69.008H171.663C170.956 69.008 170.386 68.4294 170.395 67.7231C170.437 61.605 174.496 55.9038 181.84 51.6576C189.047 47.5051 198.577 45.2246 208.72 45.2246L208.712 45.2331Z" fill="#2D2A26"/>
<path d="M159.69 52.9852C159.469 52.9852 159.256 52.9256 159.052 52.815L150.347 47.769C149.734 47.4116 149.53 46.6373 149.879 46.0246C150.236 45.412 151.011 45.2077 151.623 45.5566L160.328 50.6026C160.941 50.96 161.145 51.7343 160.796 52.347C160.558 52.7555 160.133 52.9852 159.69 52.9852Z" fill="#2D2A26"/>
<path d="M180.58 40.9274C180.367 40.9274 180.146 40.8763 179.942 40.7572L171.237 35.7197C170.624 35.3623 170.42 34.588 170.769 33.9753C171.118 33.3626 171.901 33.1584 172.513 33.5073L181.218 38.5448C181.831 38.9022 182.035 39.6765 181.686 40.2892C181.448 40.6976 181.023 40.9274 180.58 40.9274Z" fill="#2D2A26"/>
<path d="M173.969 99.267C158.822 99.267 143.676 95.9398 132.146 89.2771C120.735 82.6909 114.446 73.8497 114.446 64.3789V47.8794C114.446 47.1731 115.016 46.603 115.723 46.603C116.429 46.603 116.999 47.1731 116.999 47.8794V64.3789C116.999 72.8967 122.828 80.955 133.422 87.0647C155.776 99.9817 192.162 99.9817 214.532 87.0647C225.135 80.9465 230.972 72.8882 230.972 64.3789V47.8794C230.972 47.1731 231.543 46.603 232.249 46.603C232.955 46.603 233.525 47.1731 233.525 47.8794V64.3789C233.525 73.8412 227.228 82.6824 215.809 89.2771C204.279 95.9398 189.124 99.267 173.977 99.267H173.969Z" fill="#2D2A26"/>
</g>
<defs>
<radialGradient id="paint0_radial_1255_14511" cx="0" cy="0" r="1" gradientUnits="userSpaceOnUse" gradientTransform="translate(163.5 90) rotate(90) scale(75 122.887)">
<stop stop-color="white" stop-opacity="0.3"/>
<stop offset="1" stop-color="#2D2A26" stop-opacity="0"/>
</radialGradient>
<clipPath id="clip0_1255_14511">
<rect width="160" height="153.252" fill="white" transform="translate(84 13)"/>
</clipPath>
</defs>
</svg>
