<svg width="44" height="44" viewBox="0 0 44 44" fill="none" xmlns="http://www.w3.org/2000/svg">
<path d="M0 4C0 1.79086 1.79086 0 4 0H40C42.2091 0 44 1.79086 44 4V40C44 42.2091 42.2091 44 40 44H4C1.79086 44 0 42.2091 0 40V4Z" fill="#EB212E"/>
<g clip-path="url(#clip0_461_38191)">
<path fill-rule="evenodd" clip-rule="evenodd" d="M31.6599 9.99868V10.0194C34.5862 10.1824 36.9304 11.0414 37.5565 13.4968C37.911 14.8862 37.5203 16.3299 37.0287 17.3804C36.506 18.4929 35.9006 19.3622 35.1787 20.2057C33.7505 21.8771 32.0248 23.2433 30.1153 24.5162C28.2317 25.7711 26.1386 26.8422 23.9342 27.6883C22.8811 28.0945 21.6651 28.493 20.3352 28.7853C19.0829 29.0596 17.5331 29.2717 16.167 28.969C14.8862 28.6844 13.8953 28.0324 13.7064 26.731C13.5046 25.3312 14.198 24.1669 14.8242 23.2536C16.1049 21.3907 17.8798 20.0427 19.8876 18.9431C21.8953 17.8435 24.2369 16.925 27.308 17.0518C24.8009 17.326 23.0855 18.0738 21.4115 19.1656C19.9574 20.1152 18.2213 21.5382 17.6909 23.4347C17.3183 24.7646 17.9367 25.6521 18.85 26.079C19.7737 26.5085 21.1864 26.5369 22.3662 26.4257C24.7414 26.2006 26.7518 25.3493 28.3844 24.4541C30.9148 23.0647 33.1399 21.1786 34.6457 18.6999C35.1529 17.8642 35.6108 16.9172 35.8256 15.8926C36.4077 13.1009 35.0235 11.5459 33.039 10.9327C31.0157 10.3066 28.0532 10.6274 25.9833 11.1759C21.8022 12.2859 18.4723 14.3066 15.5124 16.7051C14.079 17.8668 12.7388 19.2174 11.5279 20.7103C10.3222 22.198 9.24327 23.8254 8.53951 25.7116C8.15659 26.7336 7.87715 27.8875 8.03239 29.1269C8.44637 32.4438 11.9289 33.4348 15.841 33.2148C20.8061 32.9328 24.5525 31.22 27.9601 29.352C24.8708 31.2692 21.1321 33.0441 16.7569 33.7427C11.8513 34.5266 6.64041 33.6288 6.30664 29.0466V28.2342C6.64299 25.1424 8.11001 22.8733 9.60032 20.956C11.1915 18.9095 12.9897 17.3001 14.9872 15.7917C16.9872 14.2833 19.2407 12.9896 21.7168 11.9676C24.2265 10.9327 27.0467 10.1565 30.2964 9.99609H31.6599" fill="white"/>
<path fill-rule="evenodd" clip-rule="evenodd" d="M32.9414 15.7305C32.6982 16.3126 32.3153 16.9336 32.0255 17.539C32.8017 17.6373 33.6762 17.6373 34.486 17.702C33.477 18.0539 32.4472 18.3877 31.4149 18.7188C31.0733 19.3734 30.7318 20.028 30.398 20.6904C30.072 20.2764 29.8288 19.7822 29.5028 19.3683C28.4989 19.6787 27.5313 20.0254 26.5352 20.3437C27.3476 19.746 28.1755 19.1665 28.9957 18.5765C28.7473 18.147 28.4472 17.7693 28.2014 17.3372C28.781 17.3812 29.3502 17.4019 29.9297 17.4381C30.1186 17.4485 30.3385 17.508 30.499 17.4795C30.6645 17.4485 30.9466 17.182 31.1303 17.0526C31.7409 16.6153 32.3567 16.1496 32.9388 15.7305" fill="white"/>
</g>
<defs>
<clipPath id="clip0_461_38191">
<rect width="31.387" height="24.0001" fill="white" transform="translate(6.30664 10)"/>
</clipPath>
</defs>
</svg>
