<svg width="321" height="152" viewBox="0 0 321 152" fill="none" xmlns="http://www.w3.org/2000/svg">
    <path d="M20.938 1H1v25M20.938 1v25m0-25h19.937M20.937 26H1m19.938 0v25m0-25h19.937M1 26v25m19.938 0H1m19.938 0v25m0-25h19.937M1 51v25m19.938 0H1m19.938 0v25m0-25h19.937M1 76v25m19.938 0H1m19.938 0v25m0-25h19.937M1 101v25m19.938 0H1m19.938 0v25m0-25h19.937M1 126v25h19.938m0 0h19.937m0-150v25m0-25h19.938M40.874 26v25m0-25h19.938M40.874 51v25m0-25h19.938M40.874 76v25m0-25h19.938m-19.938 25v25m0-25h19.938m-19.938 25v25m0-25h19.938m-19.938 25h19.938m0-150v25m0-25H80.75M60.812 26v25m0-25H80.75M60.812 51v25m0-25H80.75M60.812 76v25m0-25H80.75m-19.938 25v25m0-25H80.75m-19.938 25v25m0-25H80.75m-19.938 25H80.75m0-150v25m0-25h19.938M80.75 26v25m0-25h19.938M80.75 51v25m0-25h19.938M80.75 76v25m0-25h19.938M80.75 101v25m0-25h19.938M80.75 126v25m0-25h19.938M80.75 151h19.938m0-150v25m0-25h19.937m-19.937 25v25m0-25h19.937m-19.937 25v25m0-25h19.937m-19.937 25v25m0-25h19.937m-19.937 25v25m0-25h19.937m-19.937 25v25m0-25h19.937m-19.937 25h19.937m0-150v25m0-25h19.938m-19.938 25v25m0-25h19.938m-19.938 25v25m0-25h19.938m-19.938 25v25m0-25h19.938m-19.938 25v25m0-25h19.938m-19.938 25v25m0-25h19.938m-19.938 25h19.938m0-150v25m0-25H160.5m-19.937 25v25m0-25H160.5m-19.937 25v25m0-25H160.5m-19.937 25v25m0-25H160.5m-19.937 25v25m0-25H160.5m-19.937 25v25m0-25H160.5m-19.937 25H160.5m0-150v25m0-25h19.938M160.5 26v25m0-25h19.938M160.5 51v25m0-25h19.938M160.5 76v25m0-25h19.938M160.5 101v25m0-25h19.938M160.5 126v25m0-25h19.938M160.5 151h19.938m0-150v25m0-25h19.937m-19.937 25v25m0-25h19.937m-19.937 25v25m0-25h19.937m-19.937 25v25m0-25h19.937m-19.937 25v25m0-25h19.937m-19.937 25v25m0-25h19.937m-19.937 25h19.937m0-150v25m0-25h19.938m-19.938 25v25m0-25h19.938m-19.938 25v25m0-25h19.938m-19.938 25v25m0-25h19.938m-19.938 25v25m0-25h19.938m-19.938 25v25m0-25h19.938m-19.938 25h19.938m0-150v25m0-25h19.937m-19.937 25v25m0-25h19.937m-19.937 25v25m0-25h19.937m-19.937 25v25m0-25h19.937m-19.937 25v25m0-25h19.937m-19.937 25v25m0-25h19.937m-19.937 25h19.937m0-150v25m0-25h19.938M240.25 26v25m0-25h19.938M240.25 51v25m0-25h19.938M240.25 76v25m0-25h19.938m-19.938 25v25m0-25h19.938m-19.938 25v25m0-25h19.938m-19.938 25h19.938m0-150v25m0-25h19.937m-19.937 25v25m0-25h19.937m-19.937 25v25m0-25h19.937m-19.937 25v25m0-25h19.937m-19.937 25v25m0-25h19.937m-19.937 25v25m0-25h19.937m-19.937 25h19.937m0-150v25m0-25h19.938m-19.938 25v25m0-25h19.938m-19.938 25v25m0-25h19.938m-19.938 25v25m0-25h19.938m-19.938 25v25m0-25h19.938m-19.938 25v25m0-25h19.938m-19.938 25h19.938m0-150v25m0-25H320v25m-19.937 0v25m0-25H320m-19.937 25v25m0-25H320m-19.937 25v25m0-25H320m-19.937 25v25m0-25H320m-19.937 25v25m0-25H320m-19.937 25H320v-25m0-100v25m0 0v25m0 0v25m0 0v25" stroke="url(#7hqgs3a0va)"/>
    <defs>
        <radialGradient id="7hqgs3a0va" cx="0" cy="0" r="1" gradientUnits="userSpaceOnUse" gradientTransform="matrix(0 75 -122.887 0 160.5 76)">
            <stop stop-color="#fff" stop-opacity=".3"/>
            <stop offset="1" stop-color="#2D2A26" stop-opacity="0"/>
        </radialGradient>
    </defs>
</svg>
