<svg width="140" height="25" viewBox="0 0 140 25" fill="none" xmlns="http://www.w3.org/2000/svg">
    <g clip-path="url(#vcbukixpua)" clip-rule="evenodd">
        <path d="M-1004.87-544.688H42477.4V1306.56H-1004.87V-544.688z" stroke="#979797" stroke-width=".614"/>
        <path fill-rule="evenodd" d="M14.475 22.294h10.731V2.668h-10.73v19.626z" fill="#FF5F00"/>
        <path fill-rule="evenodd" d="M15.157 12.48c0-3.98 1.831-7.527 4.684-9.812a12.074 12.074 0 0 0-7.579-2.669C5.49-.001 0 5.588 0 12.481c0 6.894 5.49 12.482 12.262 12.482 2.861 0 5.493-.997 7.579-2.669a12.542 12.542 0 0 1-4.684-9.813z" fill="#EB001B"/>
        <path fill-rule="evenodd" d="M39.681 12.48c0 6.895-5.49 12.483-12.262 12.483-2.75.004-5.42-.936-7.578-2.669a12.54 12.54 0 0 0 4.684-9.813c0-3.981-1.832-7.528-4.684-9.813a12.073 12.073 0 0 1 7.578-2.669c6.772 0 12.262 5.588 12.262 12.482z" fill="#F79E1B"/>
        <path fill-rule="evenodd" d="M53.334 22.873h-.914l1.157-2.053-1.673-3.057h.925l1.213 2.21 1.17-2.21h.906l-2.784 5.11zm-3.451-4.419a1.076 1.076 0 0 0-.647.196c-.19.134-.333.326-.41.547-.055.15-.082.314-.082.491 0 .176.028.34.083.49.055.15.132.28.233.39.1.11.219.196.358.258.14.064.295.095.465.095a1.07 1.07 0 0 0 .835-.364c.097-.11.171-.24.224-.392a1.43 1.43 0 0 0 .08-.477c0-.169-.027-.328-.08-.478a1.183 1.183 0 0 0-.224-.392 1.066 1.066 0 0 0-.359-.265 1.124 1.124 0 0 0-.476-.099zm.098-.791a1.823 1.823 0 0 1 1.339.57c.172.18.305.394.402.641.097.248.146.519.146.814 0 .294-.05.565-.146.813a1.94 1.94 0 0 1-.402.641 1.849 1.849 0 0 1-1.338.571c-.271 0-.503-.051-.697-.153a1.48 1.48 0 0 1-.486-.406v.458h-.823v-5.4h.823v2.01c.131-.17.294-.305.486-.407.194-.101.426-.152.696-.152zm15.877 2.023c0-.677.435-1.233 1.145-1.233.68 0 1.138.532 1.138 1.233 0 .701-.457 1.233-1.138 1.233-.71 0-1.145-.556-1.145-1.233zm3.058 0v-1.925h-.822v.467c-.26-.346-.655-.564-1.193-.564-1.059 0-1.888.846-1.888 2.023s.83 2.022 1.888 2.022c.538 0 .933-.217 1.193-.564v.468h.822v-1.927zm27.748 0c0-.677.435-1.233 1.146-1.233.68 0 1.138.532 1.138 1.233 0 .701-.459 1.233-1.138 1.233-.711 0-1.146-.556-1.146-1.233zm3.058 0v-3.473h-.821v2.014c-.261-.346-.656-.563-1.194-.563-1.058 0-1.888.846-1.888 2.022 0 1.177.83 2.023 1.888 2.023.538 0 .933-.218 1.194-.564v.467h.82l.001-1.926zm-20.614-1.273c.53 0 .87.338.956.935h-1.96c.088-.556.42-.935 1.004-.935zm.016-.75c-1.106 0-1.88.822-1.88 2.023 0 1.225.806 2.023 1.936 2.023.568 0 1.09-.145 1.548-.54l-.403-.62a1.775 1.775 0 0 1-1.099.403c-.528 0-1.011-.25-1.13-.944h2.805c.008-.104.016-.209.016-.322-.008-1.2-.735-2.022-1.793-2.022zm9.916 2.023c0-.677.434-1.233 1.146-1.233.679 0 1.137.532 1.137 1.233 0 .701-.458 1.233-1.137 1.233-.712 0-1.146-.556-1.146-1.233zm3.058 0v-1.925h-.822v.467c-.26-.346-.656-.564-1.193-.564-1.06 0-1.889.846-1.889 2.023s.83 2.022 1.889 2.022c.537 0 .933-.217 1.193-.564v.468h.822v-1.927zm-7.696 0c0 1.169.798 2.023 2.014 2.023.57 0 .949-.13 1.36-.46l-.395-.677c-.308.227-.633.347-.988.347-.656-.009-1.138-.492-1.138-1.233 0-.741.483-1.225 1.138-1.233.355 0 .68.12.988.347l.394-.677c-.41-.33-.79-.46-1.358-.46-1.216 0-2.015.855-2.015 2.023zm10.588-2.022c-.475 0-.783.225-.996.563v-.466h-.814v3.851h.822v-2.159c0-.637.269-.992.805-.992.167 0 .34.025.514.097l.253-.79a1.715 1.715 0 0 0-.584-.104zm-22.013.403c-.395-.267-.94-.403-1.541-.403-.955 0-1.572.466-1.572 1.233 0 .628.458 1.015 1.303 1.135l.388.057c.45.065.664.185.664.403 0 .298-.301.467-.862.467-.568 0-.98-.185-1.256-.403l-.387.653c.45.339 1.019.5 1.635.5 1.091 0 1.723-.524 1.723-1.257 0-.677-.498-1.032-1.32-1.153l-.387-.056c-.356-.049-.64-.12-.64-.379 0-.282.269-.451.719-.451.483 0 .948.186 1.177.33l.356-.676zm10.595-.403c-.474 0-.782.225-.996.563v-.466h-.813v3.851h.821v-2.159c0-.637.27-.992.807-.992.165 0 .34.025.513.097l.254-.79a1.723 1.723 0 0 0-.586-.104zm-7.008.096h-1.342v-1.168h-.83v1.169h-.768v.765h.768v1.757c0 .894.34 1.426 1.311 1.426.356 0 .766-.113 1.027-.299l-.237-.716a1.495 1.495 0 0 1-.727.216c-.41 0-.544-.257-.544-.644v-1.74h1.342v-.765zm-12.278 3.852v-2.418c0-.91-.569-1.522-1.485-1.53-.483-.009-.98.145-1.328.684-.26-.427-.671-.684-1.248-.684-.403 0-.798.12-1.107.571v-.474h-.82v3.851h.828v-2.135c0-.669.364-1.024.925-1.024.545 0 .821.363.821 1.016v2.143h.83v-2.135c0-.669.38-1.024.925-1.024.56 0 .829.363.829 1.016v2.143h.83zm75.276-15.608c-.843-.568-2.006-.86-3.288-.86-2.039 0-3.355.997-3.355 2.63 0 1.342.979 2.167 2.782 2.426l.826.12c.961.137 1.416.396 1.416.86 0 .636-.64.997-1.837.997-1.214 0-2.091-.396-2.681-.86l-.826 1.393c.961.722 2.175 1.066 3.49 1.066 2.327 0 3.676-1.117 3.676-2.682 0-1.445-1.063-2.201-2.816-2.46l-.826-.12c-.759-.103-1.366-.258-1.366-.808 0-.602.574-.963 1.535-.963 1.028 0 2.022.396 2.512.705l.758-1.444zm-8.413 0c-.842-.568-2.006-.86-3.288-.86-2.04 0-3.355.997-3.355 2.63 0 1.342.978 2.167 2.782 2.426l.827.12c.961.137 1.416.396 1.416.86 0 .636-.641.997-1.838.997-1.214 0-2.091-.396-2.681-.86l-.826 1.393c.961.722 2.175 1.066 3.49 1.066 2.327 0 3.676-1.117 3.676-2.682 0-1.445-1.063-2.201-2.816-2.46l-.826-.12c-.759-.103-1.366-.258-1.366-.808 0-.602.573-.963 1.535-.963 1.028 0 2.022.396 2.511.705l.759-1.444zm-20.08 3.421c0 1.445-.927 2.632-2.445 2.632-1.45 0-2.428-1.136-2.428-2.632 0-1.496.978-2.63 2.428-2.63 1.517 0 2.445 1.187 2.445 2.63zm-6.525 0v7.085h1.753v-3.972c.557.74 1.4 1.204 2.547 1.204 2.259 0 4.029-1.806 4.029-4.317 0-2.51-1.77-4.316-4.029-4.316-1.147 0-1.99.465-2.547 1.204v-.998h-1.753v4.11zm11.414.018c0-1.445.928-2.631 2.444-2.631 1.451 0 2.429 1.135 2.429 2.631 0 1.496-.978 2.631-2.428 2.631-1.517 0-2.445-1.187-2.445-2.631zm6.525 0v-4.11h-1.753v.997c-.557-.739-1.4-1.204-2.546-1.204-2.259 0-4.03 1.806-4.03 4.317 0 2.51 1.771 4.316 4.03 4.316 1.146 0 1.989-.464 2.546-1.204v.998h1.753v-4.11zm-58.454 0c0-1.445.928-2.631 2.445-2.631 1.45 0 2.428 1.135 2.428 2.631 0 1.496-.978 2.631-2.428 2.631-1.517 0-2.445-1.187-2.445-2.631zm6.526 0v-4.11H68.8v.997c-.556-.739-1.4-1.204-2.546-1.204-2.26 0-4.03 1.806-4.03 4.317 0 2.51 1.771 4.316 4.03 4.316 1.147 0 1.99-.464 2.546-1.204v.998h1.754v-4.11zm21.749-2.717c1.13 0 1.854.722 2.04 1.994h-4.182c.186-1.186.894-1.994 2.142-1.994zm.033-1.6c-2.36 0-4.013 1.754-4.013 4.317 0 2.613 1.72 4.316 4.132 4.316 1.213 0 2.326-.31 3.304-1.152l-.86-1.325c-.675.55-1.534.86-2.344.86-1.13 0-2.157-.532-2.41-2.012h5.985c.017-.223.033-.446.033-.688-.016-2.562-1.568-4.316-3.827-4.316zm-13.117.86c-.843-.567-2.007-.86-3.287-.86-2.04 0-3.356.998-3.356 2.631 0 1.342.979 2.167 2.783 2.425l.826.121c.96.137 1.415.395 1.415.86 0 .636-.64.997-1.837.997-1.214 0-2.09-.396-2.68-.86l-.826 1.393c.96.723 2.175 1.066 3.49 1.066 2.326 0 3.675-1.118 3.675-2.683 0-1.444-1.063-2.2-2.816-2.458l-.827-.121c-.758-.103-1.365-.258-1.365-.808 0-.602.574-.963 1.535-.963 1.028 0 2.022.395 2.511.705l.76-1.445zm22.61-.86c-1.012 0-1.669.481-2.125 1.204v-.997h-1.736v8.22h1.753V8.944c0-1.359.573-2.115 1.719-2.115.355 0 .725.051 1.097.206l.54-1.685a3.684 3.684 0 0 0-1.248-.224zm-14.955.206h-2.867V2.84h-1.77v2.494h-1.635v1.633h1.636v3.75c0 1.907.724 3.043 2.798 3.043.759 0 1.636-.241 2.192-.636l-.506-1.532c-.522.31-1.096.465-1.551.465-.877 0-1.164-.55-1.164-1.375V6.967h2.867V5.332zm-26.2 8.222v-5.16c0-1.944-1.214-3.25-3.17-3.267-1.029-.017-2.091.31-2.833 1.462-.557-.912-1.433-1.462-2.663-1.462-.86 0-1.703.258-2.36 1.222V5.333h-1.755v8.22h1.77V8.995c0-1.426.776-2.183 1.974-2.183 1.163 0 1.753.773 1.753 2.167v4.574h1.77V8.995c0-1.426.81-2.183 1.973-2.183 1.197 0 1.77.773 1.77 2.167v4.574h1.771z" fill="#211F1C"/>
    </g>
    <defs>
        <clipPath id="vcbukixpua">
            <path fill="#fff" d="M0 0h140v25H0z"/>
        </clipPath>
    </defs>
</svg>
