<svg width="72" height="80" viewBox="0 0 72 80" fill="none" xmlns="http://www.w3.org/2000/svg">
<g clip-path="url(#clip0_1120_712)">
<path d="M0 8C0 3.58172 3.58172 0 8 0H36V80H8C3.58172 80 0 76.4183 0 72V8Z" fill="#E4E4E4"/>
<path d="M12 16C12 11.5817 15.5817 8 20 8H52C56.4183 8 60 11.5817 60 16C60 20.4183 56.4183 24 52 24H20C15.5817 24 12 20.4183 12 16Z" fill="#D6D6D6"/>
<path d="M12 40C12 35.5817 15.5817 32 20 32H52C56.4183 32 60 35.5817 60 40C60 44.4183 56.4183 48 52 48H20C15.5817 48 12 44.4183 12 40Z" fill="#D6D6D6"/>
<path d="M12 64C12 59.5817 15.5817 56 20 56H52C56.4183 56 60 59.5817 60 64C60 68.4183 56.4183 72 52 72H20C15.5817 72 12 68.4183 12 64Z" fill="#D6D6D6"/>
</g>
<g clip-path="url(#clip1_1120_712)">
<path d="M36 0H64C68.4183 0 72 3.58172 72 8V72C72 76.4183 68.4183 80 64 80H36V0Z" fill="#2D2A26"/>
<path d="M12 16C12 11.5817 15.5817 8 20 8H52C56.4183 8 60 11.5817 60 16C60 20.4183 56.4183 24 52 24H20C15.5817 24 12 20.4183 12 16Z" fill="#636363"/>
<path d="M12 40C12 35.5817 15.5817 32 20 32H52C56.4183 32 60 35.5817 60 40C60 44.4183 56.4183 48 52 48H20C15.5817 48 12 44.4183 12 40Z" fill="#636363"/>
<path d="M12 64C12 59.5817 15.5817 56 20 56H52C56.4183 56 60 59.5817 60 64C60 68.4183 56.4183 72 52 72H20C15.5817 72 12 68.4183 12 64Z" fill="#636363"/>
</g>
<defs>
<clipPath id="clip0_1120_712">
<path d="M0 8C0 3.58172 3.58172 0 8 0H36V80H8C3.58172 80 0 76.4183 0 72V8Z" fill="white"/>
</clipPath>
<clipPath id="clip1_1120_712">
<path d="M36 0H64C68.4183 0 72 3.58172 72 8V72C72 76.4183 68.4183 80 64 80H36V0Z" fill="white"/>
</clipPath>
</defs>
</svg>
