<svg width="25" height="24" viewBox="0 0 25 24" fill="none" xmlns="http://www.w3.org/2000/svg">
    <path opacity=".2" d="M2.125 8.2V10h20V8.2c0-1.12 0-1.68-.218-2.108a2 2 0 0 0-.874-.874C20.605 5 20.045 5 18.925 5h-13.6c-1.12 0-1.68 0-2.108.218a2 2 0 0 0-.874.874c-.218.428-.218.988-.218 2.108z" fill="#0F0"/>
    <path d="M22.125 10h-20m9 4h-5m-4-5.8v7.6c0 1.12 0 1.68.218 2.108a2 2 0 0 0 .874.874c.428.218.988.218 2.108.218h13.6c1.12 0 1.68 0 2.108-.218a2 2 0 0 0 .874-.874c.218-.428.218-.988.218-2.108V8.2c0-1.12 0-1.68-.218-2.108a2 2 0 0 0-.874-.874C20.605 5 20.045 5 18.925 5h-13.6c-1.12 0-1.68 0-2.108.218a2 2 0 0 0-.874.874c-.218.428-.218.988-.218 2.108z" stroke="#0F0" stroke-width="1.5" stroke-linecap="round" stroke-linejoin="round"/>
</svg>
