<svg width="25" height="24" viewBox="0 0 25 24" fill="none" xmlns="http://www.w3.org/2000/svg">
    <path opacity=".2" d="M14.155 8.352a3.5 3.5 0 1 1 .941-4.704 3.5 3.5 0 1 1-.941 4.704z" fill="#0F0"/>
    <path d="M14.155 8.352a3.5 3.5 0 1 1 .941-4.704m-8.471 16.44h2.61c.34 0 .679.04 1.009.12l2.758.67c.598.147 1.222.16 1.826.043l3.05-.593a4.204 4.204 0 0 0 2.127-1.107l2.158-2.1a1.503 1.503 0 0 0 0-2.168 1.61 1.61 0 0 0-2.06-.143l-2.515 1.835c-.36.263-.799.405-1.25.405H13.91h1.546c.871 0 1.577-.687 1.577-1.534v-.307c0-.704-.492-1.317-1.194-1.487l-2.385-.58A5.03 5.03 0 0 0 12.268 13c-.965 0-2.711.799-2.711.799l-2.932 1.226m14-8.525a3.5 3.5 0 1 1-7 0 3.5 3.5 0 0 1 7 0zm-18 8.1v5.8c0 .56 0 .84.109 1.054a1 1 0 0 0 .437.437c.214.109.494.109 1.054.109h.8c.56 0 .84 0 1.054-.109a1 1 0 0 0 .437-.437c.109-.214.109-.494.109-1.054v-5.8c0-.56 0-.84-.109-1.054a1 1 0 0 0-.437-.437C5.865 13 5.585 13 5.025 13h-.8c-.56 0-.84 0-1.054.109a1 1 0 0 0-.437.437c-.109.214-.109.494-.109 1.054z" stroke="#0F0" stroke-width="1.5" stroke-linecap="round" stroke-linejoin="round"/>
</svg>
