<svg width="25" height="24" viewBox="0 0 25 24" fill="none" xmlns="http://www.w3.org/2000/svg">
    <path opacity=".2" d="M3.875 10.565c0-.574 0-.861.074-1.126a2 2 0 0 1 .318-.65c.163-.22.39-.397.843-.75l6.783-5.275c.351-.273.527-.41.72-.462a1 1 0 0 1 .523 0c.194.052.37.189.721.462l6.783 5.275c.453.353.68.53.843.75.145.195.252.416.318.65.074.265.074.552.074 1.126V17.8c0 1.12 0 1.68-.218 2.108a2 2 0 0 1-.874.874c-.428.218-.988.218-2.108.218h-11.6c-1.12 0-1.68 0-2.108-.218a2 2 0 0 1-.874-.874c-.218-.428-.218-.988-.218-2.108v-7.235z" fill="#0F0"/>
    <path d="M9.001 14a4.002 4.002 0 0 0 7.748 0M11.893 2.764 5.11 8.039c-.453.353-.68.53-.843.75a2 2 0 0 0-.318.65c-.074.265-.074.552-.074 1.126V17.8c0 1.12 0 1.68.218 2.108a2 2 0 0 0 .874.874c.428.218.988.218 2.108.218h11.6c1.12 0 1.68 0 2.108-.218a2 2 0 0 0 .874-.874c.218-.428.218-.988.218-2.108v-7.235c0-.574 0-.861-.074-1.126a1.998 1.998 0 0 0-.318-.65c-.163-.22-.39-.397-.843-.75l-6.783-5.275c-.351-.273-.527-.41-.72-.462a1 1 0 0 0-.523 0c-.194.052-.37.189-.721.462z" stroke="#0F0" stroke-width="1.5" stroke-linecap="round" stroke-linejoin="round"/>
</svg>
