<svg width="20" height="18" viewBox="0 0 20 18" fill="none" xmlns="http://www.w3.org/2000/svg">
<g id="elements">
<path id="Ellipse 1696" d="M1.66634 5.66667C1.66634 5.66667 5.3973 1.5 9.99967 1.5C14.602 1.5 18.333 5.66667 18.333 5.66667" stroke="#818181" stroke-width="1.5" stroke-linecap="round"/>
<path id="Ellipse 1333" d="M17.9531 9.87147C18.2065 10.2267 18.3332 10.4044 18.3332 10.6673C18.3332 10.9303 18.2065 11.1079 17.9531 11.4632C16.8148 13.0594 13.9075 16.5007 9.99984 16.5007C6.09215 16.5007 3.18492 13.0595 2.04654 11.4632C1.79318 11.1079 1.6665 10.9303 1.6665 10.6673C1.6665 10.4044 1.79318 10.2267 2.04654 9.87147C3.18492 8.27519 6.09215 4.83398 9.99984 4.83398C13.9075 4.83398 16.8148 8.27518 17.9531 9.87147Z" stroke="#818181" stroke-width="1.5"/>
<path id="Ellipse 1334" d="M12.5 10.666C12.5 9.2853 11.3807 8.16602 10 8.16602C8.61929 8.16602 7.5 9.2853 7.5 10.666C7.5 12.0467 8.61929 13.166 10 13.166C11.3807 13.166 12.5 12.0467 12.5 10.666Z" stroke="#818181" stroke-width="1.5"/>
</g>
</svg>
