<svg width="24" height="24" viewBox="0 0 24 24" fill="none" xmlns="http://www.w3.org/2000/svg">
    <path d="M12.435 15.514V9h2.68c.577 0 1.07.093 1.48.28.416.185.735.452.958.8.224.347.335.76.335 1.237 0 .478-.111.89-.335 1.238a2.17 2.17 0 0 1-.958.79c-.41.18-.903.27-1.48.27h-2.01l.54-.549v2.448h-1.21zm4.262 0L15.05 13.15h1.294L18 15.514h-1.303zm-3.052-2.317-.54-.577h1.954c.534 0 .934-.115 1.2-.345.274-.229.41-.549.41-.958 0-.416-.136-.735-.41-.958-.266-.224-.666-.335-1.2-.335h-1.954l.54-.596v3.769zM8.159 15.514v-5.49H6V9h5.527v1.024H9.37v5.49h-1.21z" fill="#FDFDFD"/>
    <path d="M2.5 12c0-4.478 0-6.718 1.391-8.109S7.521 2.5 12 2.5c4.478 0 6.718 0 8.109 1.391S21.5 7.521 21.5 12c0 4.478 0 6.718-1.391 8.109C18.717 21.5 16.479 21.5 12 21.5c-4.478 0-6.718 0-8.109-1.391C2.5 18.717 2.5 16.479 2.5 12z" stroke="#FDFDFD" stroke-width="1.5"/>
</svg>
