<svg width="24" height="24" viewBox="0 0 24 24" fill="none" xmlns="http://www.w3.org/2000/svg">
    <path d="M2.5 12c0-4.478 0-6.718 1.391-8.109S7.521 2.5 12 2.5c4.478 0 6.718 0 8.109 1.391S21.5 7.521 21.5 12c0 4.478 0 6.718-1.391 8.109C18.717 21.5 16.479 21.5 12 21.5c-4.478 0-6.718 0-8.109-1.391C2.5 18.717 2.5 16.479 2.5 12z" stroke="#FDFDFD" stroke-width="1.5"/>
    <path d="M12.482 15.773V9h1.035l4.248 5.215h-.513V9H18.5v6.773h-1.035l-4.248-5.215h.513v5.215h-1.248zM7.161 11.816h3.367v1.035H7.161v-1.035zm.097 2.902h3.822v1.055H6V9h4.944v1.055H7.258v4.663z" fill="#FDFDFD"/>
</svg>
