<svg width="83" height="32" viewBox="0 0 83 32" fill="none" xmlns="http://www.w3.org/2000/svg">
<path d="M66.8732 0H16.1268C7.3583 0 0.25 7.1083 0.25 15.8768V16.2062C0.25 24.9748 7.3583 32.083 16.1268 32.083H66.8732C75.6417 32.083 82.75 24.9748 82.75 16.2062V15.8768C82.75 7.1083 75.6417 0 66.8732 0Z" fill="#00FF00"/>
<path d="M36.6842 3.28729H16.2915C9.25981 3.28729 3.53729 9.00813 3.53729 16.0415C3.53729 23.0749 9.25813 28.7958 16.2915 28.7958C16.5739 28.7958 23.5199 28.7857 23.8039 28.7672H35.8287C36.1128 28.7857 36.4002 28.7958 36.6825 28.7958C43.7142 28.7958 49.4367 23.0749 49.4367 16.0415C49.4367 9.00813 43.7159 3.28729 36.6825 3.28729H36.6842Z" fill="white"/>
<path d="M58.7121 6.88386L64.3035 15.2702C64.4581 15.5021 64.8194 15.3928 64.8194 15.1139V7.46368C64.8194 6.89059 65.285 6.42506 65.8581 6.42506H70.1941C70.7672 6.42506 71.2327 6.89059 71.2327 7.46368V24.6245C71.2327 25.1976 70.7672 25.6631 70.1941 25.6631H65.3757C65.0295 25.6631 64.7052 25.49 64.5119 25.201L58.9238 16.8197C58.7692 16.5878 58.4079 16.697 58.4079 16.976V24.6245C58.4079 25.1976 57.9423 25.6631 57.3693 25.6631H53.0333C52.4602 25.6631 51.9946 25.1976 51.9946 24.6245V7.45864C51.9946 6.88555 52.4602 6.42001 53.0333 6.42001H57.8499C58.1961 6.42001 58.5205 6.59312 58.7137 6.88218L58.7121 6.88386Z" fill="#2D2A26"/>
<path d="M36.6842 5.84521C31.0524 5.84521 26.4879 10.4098 26.4879 16.0415C26.4879 21.6733 31.0524 26.2379 36.6842 26.2379C42.3159 26.2379 46.8805 21.6733 46.8805 16.0415C46.8805 10.4098 42.3159 5.84521 36.6842 5.84521Z" fill="#2D2A26"/>
</svg>
