<svg width="81" height="80" viewBox="0 0 81 80" fill="none" xmlns="http://www.w3.org/2000/svg">
<rect x="1.25" y="0.75" width="78.5" height="78.5" rx="39.25" fill="url(#paint0_linear_763_3385)"/>
<rect x="1.25" y="0.75" width="78.5" height="78.5" rx="39.25" stroke="url(#paint1_linear_763_3385)" stroke-width="1.5"/>
<rect x="17.25" y="16.75" width="46.5" height="46.5" rx="23.25" fill="#E9EFFB"/>
<rect x="17.25" y="16.75" width="46.5" height="46.5" rx="23.25" stroke="#2357C6" stroke-width="1.5"/>
<path d="M50.5 40C50.5 34.4772 46.0228 30 40.5 30C34.9772 30 30.5 34.4772 30.5 40C30.5 45.5228 34.9772 50 40.5 50C46.0228 50 50.5 45.5228 50.5 40Z" stroke="#2357C6" stroke-width="1.5"/>
<path d="M40.7422 45V40C40.7422 39.5286 40.7422 39.2929 40.5957 39.1464C40.4493 39 40.2136 39 39.7422 39" stroke="#2357C6" stroke-width="1.5" stroke-linecap="round" stroke-linejoin="round"/>
<path d="M40.492 36H40.501" stroke="#2357C6" stroke-width="2" stroke-linecap="round" stroke-linejoin="round"/>
<defs>
<linearGradient id="paint0_linear_763_3385" x1="40.5" y1="0" x2="40.5" y2="80" gradientUnits="userSpaceOnUse">
<stop stop-color="#E9EFFB" stop-opacity="0.48"/>
<stop offset="1" stop-color="#F7F8F8" stop-opacity="0"/>
<stop offset="1" stop-color="#E9EFFB" stop-opacity="0"/>
</linearGradient>
<linearGradient id="paint1_linear_763_3385" x1="40.5" y1="0" x2="40.5" y2="80" gradientUnits="userSpaceOnUse">
<stop stop-color="#2357C6"/>
<stop offset="0.765625" stop-color="#2357C6" stop-opacity="0"/>
</linearGradient>
</defs>
</svg>
